<svg width="16" height="17" viewBox="0 0 16 17" fill="none" xmlns="http://www.w3.org/2000/svg">
<mask id="mask0_94_191" style="mask-type:luminance" maskUnits="userSpaceOnUse" x="0" y="0" width="16" height="17">
<rect y="0.149414" width="16" height="16" fill="white"/>
</mask>
<g mask="url(#mask0_94_191)">
<path fill-rule="evenodd" clip-rule="evenodd" d="M16 8.14941C16 8.14941 13 2.64941 8 2.64941C3 2.64941 0 8.14941 0 8.14941C0 8.14941 3 13.6494 8 13.6494C13 13.6494 16 8.14941 16 8.14941ZM1.173 8.14941C1.65652 8.88429 2.21265 9.56873 2.83301 10.1924C4.12 11.4814 5.88 12.6494 8 12.6494C10.12 12.6494 11.879 11.4814 13.168 10.1924C13.7884 9.56872 14.3445 8.88429 14.828 8.14942C14.3445 7.41454 13.7884 6.7301 13.168 6.10641C11.879 4.81741 10.119 3.64941 8 3.64941C5.88 3.64941 4.121 4.81741 2.832 6.10641C2.21164 6.7301 1.65551 7.41454 1.172 8.14942L1.173 8.14941Z" fill="#BEBEBE"/>
<path fill-rule="evenodd" clip-rule="evenodd" d="M8 5.64941C6.61929 5.64941 5.5 6.7687 5.5 8.14941C5.5 9.53012 6.61928 10.6494 7.99999 10.6494C9.3807 10.6494 10.5 9.53014 10.5 8.14943C10.5 6.76872 9.38072 5.64942 8.00001 5.64941H8ZM4.5 8.14941C4.5 6.89899 5.1671 5.74354 6.25 5.11833C7.3329 4.49311 8.66709 4.49311 9.75 5.11832C10.8329 5.74354 11.5 6.89898 11.5 8.14941C11.5 9.39984 10.8329 10.5553 9.75 11.1805C8.6671 11.8057 7.3329 11.8057 6.25 11.1805C5.1671 10.5553 4.5 9.39984 4.5 8.14941V8.14941Z" fill="#BEBEBE"/>
</g>
</svg>
