<svg width="50" height="110" viewBox="0 0 50 110" fill="none" xmlns="http://www.w3.org/2000/svg">
<g clip-path="url(#clip0_137_1266)">
<path d="M24.7325 0C24.6207 0 24.5322 0.0898809 24.5322 0.203415V7.17628C24.5322 7.28981 24.6207 7.37969 24.7325 7.37969C24.8442 7.37969 24.9327 7.28981 24.9327 7.17628V0.203415C24.9327 0.0898809 24.8442 0 24.7325 0Z" fill="#FFC000"/>
<path d="M24.7325 0C24.7092 0 24.6859 0.00473057 24.6673 0.0141917C24.7884 0.108803 24.8675 0.345332 24.8582 0.562938C24.8396 1.09749 24.8629 4.37105 24.7884 5.64357C24.7744 5.88956 24.6067 5.87064 24.5322 5.86118V7.17155C24.5322 7.28508 24.6207 7.37496 24.7325 7.37496C24.8442 7.37496 24.9327 7.28508 24.9327 7.17155V0.203415C24.9327 0.0898809 24.8442 0 24.7325 0Z" fill="#FFD143"/>
<path d="M27.27 7.38477H22.3105V9.97239H27.27V7.38477Z" fill="#FFD143"/>
<path d="M26.9534 7.49357C26.1151 8.24573 25.2117 8.5201 24.1081 8.5201C23.4841 8.5201 22.9159 8.62417 22.3105 8.5201V9.97239H27.27V7.38477H27.0512C27.0139 7.41788 26.9906 7.46045 26.9534 7.49357Z" fill="#FFC000"/>
<path d="M28.7692 49.6044L28.7273 49.5571C27.7634 40.6069 26.7901 28.0046 26.6457 12.7154L26.6411 12.46H22.8784L22.8737 12.7154C22.5757 44.1737 18.7851 64.3023 18.7432 64.501L19.1623 64.6193C19.1669 64.6051 19.1949 64.4395 19.2461 64.1604L21.2765 62.5757L22.897 64.1699C22.8831 64.3969 22.8737 64.5199 22.8737 64.5388L23.3022 64.5767C23.3022 64.5578 23.3161 64.3922 23.3301 64.0989L24.7691 62.4858L26.1894 64.1982C26.2033 64.43 26.2127 64.5625 26.2127 64.5767L26.6411 64.5341C26.6411 64.5199 26.6318 64.4253 26.6225 64.2645L28.3036 62.5331L30.2641 64.0989C30.32 64.4158 30.3526 64.5956 30.3572 64.6145L30.7763 64.4963C30.7577 64.3922 29.7472 59.0466 28.732 49.6375L28.7692 49.6044ZM28.6482 52.6982L27.4374 51.3784L28.3548 50.1484C28.4572 51.0378 28.555 51.8846 28.6482 52.6982ZM27.8751 58.5026L26.5479 57.2538H29.0067L27.8751 58.5026ZM27.8891 58.9852L29.3979 60.4043H26.6038L27.8891 58.9852ZM26.4455 56.7949L27.5631 55.3615L28.9835 56.7949H26.4455ZM27.5352 54.8554L26.2546 53.5592H28.5411L27.5352 54.8554ZM26.1521 53.0956L27.2511 51.6244L28.5969 53.0956H26.1521ZM20.5779 56.7949L21.9796 55.3426L23.1206 56.7949H20.5779ZM23.1485 57.2538L21.7608 58.5074L20.5733 57.2538H23.1485ZM20.9971 53.5592H23.2323L21.9983 54.8364L20.9971 53.5592ZM21.011 53.0956L22.287 51.6338L23.3348 53.0956H21.011ZM24.4664 15.918L23.8982 17.1101L23.4 15.918H24.4664ZM23.3115 15.4544L23.8889 14.338L24.457 15.4544H23.3115ZM25.6259 17.1622L25.0391 15.9133H26.1801L25.6259 17.1622ZM25.6259 17.5311L26.1894 18.7327H25.095L25.6259 17.5311ZM24.974 15.4544L25.5933 14.3002L26.2453 15.4544H24.974ZM25.5421 17.3466L24.9414 18.6996C24.932 17.8102 24.9274 16.9209 24.9227 16.0315L25.5421 17.3466ZM24.946 19.1868H24.9507H24.946C24.946 19.1916 24.946 19.1916 24.946 19.1868ZM25.9612 49.3774L26.9345 47.8778L28.1825 49.3774H25.9612ZM28.2151 49.841L27.2325 51.1513L26.031 49.841H28.2151ZM23.8424 56.7949L24.7644 55.3048L25.719 56.7949H23.8424ZM25.6771 57.2538L24.8156 58.3844L24.0193 57.2538H25.6771ZM24.3779 41.6712L24.7271 40.1054L25.0671 41.6996C25.0671 41.7469 25.0717 41.7942 25.0717 41.8463H24.3732C24.3779 41.7895 24.3779 41.728 24.3779 41.6712ZM23.8424 24.6743L24.4151 23.52C24.4012 24.3148 24.3919 25.1095 24.3779 25.8995L23.8424 24.6743ZM25.0904 42.3099C25.0904 42.3335 25.0904 42.3572 25.095 42.3761L24.7271 43.4594L24.3546 42.3761C24.3546 42.3525 24.3546 42.3288 24.3593 42.3051H25.0904V42.3099ZM25.1137 42.8965C25.1369 43.5493 25.1649 44.1879 25.1928 44.8218L24.8249 43.748L25.1137 42.8965ZM24.7271 44.0413L25.2208 45.4794C25.2208 45.5267 25.2254 45.5787 25.2254 45.626H24.2335C24.2335 45.5787 24.2382 45.5267 24.2382 45.4794L24.7271 44.0413ZM25.2673 46.6384C25.2953 47.2864 25.3232 47.9203 25.3512 48.54L24.8948 47.504L25.2673 46.6384ZM24.7365 47.1445L24.2708 46.0849H25.1882L24.7365 47.1445ZM24.5828 47.5088L24.1124 48.611C24.1404 47.9629 24.1683 47.3006 24.1963 46.6242L24.5828 47.5088ZM24.7411 47.873L25.3884 49.3442C25.3884 49.3537 25.3884 49.3679 25.3884 49.3774H24.0938L24.7411 47.873ZM25.435 50.2904C25.4722 51.0567 25.5048 51.8041 25.5421 52.5279L24.8994 51.2932L25.435 50.2904ZM25.3977 38.9417L26.2825 40.1811L25.4909 41.5341C25.4583 40.6778 25.4303 39.8169 25.3977 38.9417ZM25.5328 42.6079L26.5107 43.8899L25.6399 45.2949C25.6026 44.4197 25.57 43.5209 25.5328 42.6079ZM25.3418 49.841L24.7365 50.981L24.145 49.841H25.3418ZM25.5095 53.0956H23.9355L24.7318 51.6055L25.5095 53.0956ZM25.4629 53.5592L24.7597 54.6945L24.0286 53.5592H25.4629ZM24.5688 55.002L23.7585 56.3171C23.7958 55.5602 23.833 54.7607 23.875 53.9187L24.5688 55.002ZM24.9507 54.9973L25.6119 53.9282C25.6538 54.7276 25.6911 55.4893 25.7284 56.2083L24.9507 54.9973ZM25.6864 46.3782L26.7389 47.6412L25.8075 49.0746C25.7656 48.1994 25.7284 47.3054 25.6864 46.3782ZM26.9112 47.3763L25.8355 46.0849H27.7494L26.9112 47.3763ZM25.7423 45.6213L26.6783 44.1075L27.8286 45.6213H25.7423ZM26.6597 43.6534L25.6352 42.3099H27.4886L26.6597 43.6534ZM25.5561 41.8463L26.4222 40.3703L27.4793 41.8463H25.5561ZM26.4082 39.9682L25.4629 38.6531H27.1766L26.4082 39.9682ZM25.3651 37.9814C25.3325 36.9738 25.2999 35.952 25.2673 34.916L26.1521 36.3541L25.3651 37.9814ZM25.2347 33.7996C25.2068 32.9008 25.1835 31.9878 25.1602 31.07L25.9472 32.4041L25.2347 33.7996ZM25.1416 30.2564L25.8913 28.7048L26.6877 30.2564H25.1416ZM25.1276 29.8495C25.1043 28.9365 25.0857 28.0188 25.0671 27.0916L25.7842 28.4919L25.1276 29.8495ZM25.0438 26.0414C25.0252 25.1663 25.0112 24.2817 24.9972 23.397L25.6492 24.7263L25.0438 26.0414ZM25.7563 24.9487L26.4595 26.382H25.095L25.7563 24.9487ZM25.7563 24.5087L25.0764 23.1227H26.3989L25.7563 24.5087ZM25.0485 22.6591L25.7144 21.0791L26.4176 22.6591H25.0485ZM24.9833 22.4225C24.9693 21.4102 24.9553 20.3884 24.946 19.3666L25.6259 20.8898L24.9833 22.4225ZM24.9693 39.0363C24.9926 39.6939 25.0159 40.342 25.0391 40.9853L24.7923 39.8216L24.9693 39.0363ZM24.7365 39.533L24.5502 38.6531H24.932L24.7365 39.533ZM24.6713 39.8169L24.4058 41.0042C24.4291 40.3088 24.4524 39.604 24.4757 38.8944L24.6713 39.8169ZM24.4338 22.0441L23.9495 20.8331L24.457 19.7072C24.4524 20.4877 24.4431 21.2683 24.4338 22.0441ZM24.471 18.4773L23.9774 17.2993L24.485 16.2302C24.4803 16.9777 24.4757 17.7298 24.471 18.4773ZM24.4105 18.728H23.2929L23.8889 17.4791L24.4105 18.728ZM24.4664 19.1868C24.4664 19.2341 24.4664 19.2862 24.4664 19.3335L23.875 20.6391L23.2975 19.1916H24.4664V19.1868ZM24.4291 22.4367C24.4291 22.5124 24.4291 22.5834 24.4245 22.6591H23.1252L23.8656 21.027L24.4291 22.4367ZM24.3965 23.1179L23.7399 24.4425L23.1578 23.1179H24.3965ZM24.3686 26.3489C24.3686 26.3584 24.3686 26.3726 24.3686 26.382H22.9948L23.7306 24.8966L24.3686 26.3489ZM24.336 42.8965L24.6294 43.748L24.2661 44.8218C24.2894 44.1926 24.3127 43.5493 24.336 42.8965ZM24.2941 29.8164L23.6654 28.4398L24.3499 27.1011C24.336 28.0141 24.3173 28.9176 24.2941 29.8164ZM24.1916 33.932L23.5443 32.4088L24.2615 31.1031C24.2428 32.0587 24.2196 33.0001 24.1916 33.932ZM23.4512 32.1817L22.8318 30.7152H24.2615L23.4512 32.1817ZM24.0798 34.1449H22.5943L23.4326 32.6217L24.0798 34.1449ZM24.1497 34.6038L23.2789 36.0939L22.571 34.6038H24.1497ZM24.1637 34.9633C24.1357 35.9141 24.1078 36.8555 24.0798 37.7827L23.3767 36.3068L24.1637 34.9633ZM24.5688 51.2932L23.9448 52.4664C23.9774 51.7616 24.01 51.0331 24.0426 50.2809L24.5688 51.2932ZM23.9541 41.5199L23.1811 40.1906L24.0379 38.9512C24.0147 39.8216 23.9867 40.6778 23.9541 41.5199ZM23.06 39.9777L22.2916 38.6484H23.9821L23.06 39.9777ZM23.8936 41.8463H22.0355L23.046 40.3893L23.8936 41.8463ZM23.8144 42.3099L22.8179 43.6202L22.0309 42.3099H23.8144ZM23.9169 42.6079C23.8843 43.5162 23.8517 44.4103 23.8191 45.2807L22.9669 43.8615L23.9169 42.6079ZM23.6701 48.8428L22.8179 47.5939C23.088 47.2533 23.4046 46.8607 23.7678 46.4018C23.7399 47.2344 23.7073 48.0481 23.6701 48.8428ZM22.6409 47.3243L21.798 46.0849H23.6328C23.3254 46.4728 22.9808 46.9033 22.6409 47.3243ZM23.6514 49.3395C23.6514 49.3537 23.6514 49.3632 23.6514 49.3774H21.3417C21.5652 49.1361 21.947 48.6772 22.6269 47.8305L23.6514 49.3395ZM23.4512 49.841L22.3103 51.1466L21.3743 49.841H23.4512ZM22.4919 51.402L23.6142 50.1153C23.5723 51.0472 23.535 51.9413 23.4931 52.8023L22.4919 51.402ZM23.7026 57.3768L24.6107 58.6635L23.5629 60.0401C23.6095 59.2406 23.6561 58.3512 23.7026 57.3768ZM24.811 58.9426L25.8401 60.4043H23.698L24.811 58.9426ZM25.0159 58.6682L25.8075 57.6275C25.8541 58.479 25.9007 59.2643 25.9379 59.9738L25.0159 58.6682ZM25.8541 50.0964L27.0462 51.3973L25.9845 52.8165C25.9426 51.9508 25.896 51.0425 25.8541 50.0964ZM28.2291 48.9611L27.1068 47.6176L27.959 46.3072C28.0521 47.2202 28.1406 48.1048 28.2291 48.9611ZM27.8565 45.2286L26.8227 43.871L27.619 42.589C27.6982 43.4925 27.7773 44.3771 27.8565 45.2286ZM27.5305 41.5341L26.5479 40.1622L27.3163 38.8518C27.3862 39.7696 27.456 40.6589 27.5305 41.5341ZM27.2651 38.1896H25.4722L26.2685 36.5433L27.2651 38.1659C27.2651 38.1754 27.2651 38.1848 27.2651 38.1896ZM27.2372 37.7496L26.371 36.3399L27.0462 34.9491C27.1021 35.9 27.1673 36.8366 27.2372 37.7496ZM26.2499 36.1459L25.2999 34.6038H26.995L26.2499 36.1459ZM25.272 34.1449L26.059 32.6027L26.9671 34.1449H25.272ZM26.9671 33.7617L26.1661 32.3946L26.8134 31.1221C26.86 32.0162 26.9112 32.896 26.9671 33.7617ZM26.7901 30.7436L26.0497 32.2006L25.1742 30.7152H26.7901C26.7901 30.7247 26.7901 30.7342 26.7901 30.7436ZM26.7482 29.9536L25.9938 28.4871L26.6131 27.2099C26.6551 28.1418 26.7016 29.0548 26.7482 29.9536ZM25.8867 28.279L25.1509 26.8456H26.5805L25.8867 28.279ZM26.5666 26.1644L25.8587 24.7263L26.4595 23.4302C26.4921 24.3526 26.5293 25.2656 26.5666 26.1644ZM26.4222 22.2901L25.7935 20.8851L26.3431 19.5842C26.3663 20.5019 26.3896 21.4007 26.4222 22.2901ZM26.3291 19.2247L25.7097 20.7006L25.0345 19.1916H26.3291C26.3291 19.201 26.3291 19.2105 26.3291 19.2247ZM26.3151 18.6381L25.7097 17.3466L26.2639 16.0978C26.2779 16.9493 26.2965 17.8008 26.3151 18.6381ZM26.2499 15.1517L25.6771 14.1393L26.222 13.1175C26.2266 13.8034 26.2406 14.4799 26.2499 15.1517ZM26.1242 12.9756L25.584 13.9832L25.0112 12.9756H26.1242ZM25.5002 14.144L24.9227 15.2273C24.9181 14.5272 24.9181 13.8224 24.9181 13.1222L25.5002 14.144ZM24.7039 30.7152H24.7225C24.7504 31.8695 24.783 33.0143 24.8156 34.1402H24.62C24.648 33.0143 24.6759 31.8742 24.7039 30.7152ZM24.6061 34.6038H24.8296C24.8668 35.8195 24.9041 37.0164 24.946 38.1896H24.499C24.5362 37.0164 24.5688 35.8195 24.6061 34.6038ZM24.4896 15.18L23.9774 14.1724L24.4896 13.179C24.4896 13.8413 24.4896 14.513 24.4896 15.18ZM24.4198 12.9756L23.8889 14.0021L23.3674 12.9756H24.4198ZM23.3022 13.1743L23.8051 14.1677L23.2742 15.1942C23.2835 14.5272 23.2929 13.8555 23.3022 13.1743ZM23.2603 15.989L23.8098 17.2899L23.209 18.5482C23.2277 17.7062 23.2463 16.8547 23.2603 15.989ZM23.1904 19.1868H23.2137L23.1904 19.201C23.1904 19.1963 23.1904 19.1916 23.1904 19.1868ZM23.1904 19.3288L23.7911 20.8283L23.1019 22.3469C23.1345 21.3534 23.1625 20.3506 23.1904 19.3288ZM23.0647 23.3734L23.6328 24.6648L22.9622 26.0131C22.9995 25.1474 23.0321 24.2675 23.0647 23.3734ZM24.2708 26.8409L23.5629 28.2175L22.9343 26.8409H24.2708ZM22.911 27.2383L23.4558 28.4351L22.7899 29.736C22.8318 28.9176 22.8691 28.085 22.911 27.2383ZM22.762 30.2043L23.5583 28.6527L24.2894 30.2469C24.2894 30.2469 24.2894 30.2469 24.2894 30.2516H22.762C22.762 30.2375 22.762 30.2233 22.762 30.2043ZM22.7247 30.9423L23.3394 32.3946L22.5571 33.8138C22.613 32.8771 22.6688 31.9168 22.7247 30.9423ZM22.4872 34.8687L23.1625 36.2926L22.287 37.7922C22.3568 36.8413 22.422 35.8668 22.4872 34.8687ZM23.2649 36.5055L24.0659 38.1896H22.2823L23.2649 36.5055ZM22.2032 38.9323L22.925 40.1764L21.9983 41.5151C22.0635 40.6731 22.1333 39.8169 22.2032 38.9323ZM21.9051 42.5984L22.6502 43.8379L21.6769 45.1198C21.7515 44.3062 21.8306 43.4594 21.9051 42.5984ZM21.6304 45.6213L22.7946 44.0838L23.7213 45.626L21.6304 45.6213ZM21.5652 46.2741L22.4453 47.5703C21.9889 48.1332 21.5698 48.6488 21.2951 48.9753C21.3836 48.1048 21.4767 47.2013 21.5652 46.2741ZM21.174 50.0775L22.1054 51.3784L20.862 52.8023C20.9691 51.9366 21.0716 51.0283 21.174 50.0775ZM20.7502 53.7768L21.7701 55.0777L20.4056 56.4921C20.5174 55.6454 20.6338 54.7371 20.7502 53.7768ZM20.2799 57.4288L21.514 58.7297L19.8887 60.1962C20.0052 59.3825 20.1402 58.4601 20.2799 57.4288ZM19.3392 63.6542C19.4417 63.0629 19.586 62.1925 19.7537 61.0761L21.0296 62.3344L19.3392 63.6542ZM20.0191 60.8632H22.9157L21.2997 62.1215L20.0191 60.8632ZM22.925 63.7252L21.5466 62.3675L23.074 61.1801C23.0134 62.2918 22.9622 63.1528 22.925 63.7252ZM20.1681 60.4043L21.7421 58.9804L23.088 60.4043H20.1681ZM23.1392 59.9644L21.9936 58.7534L23.2649 57.6086C23.2183 58.4648 23.1764 59.2501 23.1392 59.9644ZM23.3161 56.5158L22.2078 55.1061L23.4465 53.8241C23.4046 54.7702 23.358 55.669 23.3161 56.5158ZM23.3674 63.5643C23.4046 62.9541 23.4558 62.0789 23.5164 60.972L24.5595 62.2303L23.3674 63.5643ZM23.8563 60.8632H25.7749L24.783 61.9796L23.8563 60.8632ZM24.9926 62.2398L25.9984 61.1092C26.0636 62.1972 26.1149 63.0534 26.1521 63.64L24.9926 62.2398ZM26.1801 56.6009C26.1335 55.7305 26.0823 54.7986 26.0357 53.8146L27.3303 55.125L26.1801 56.6009ZM26.222 57.4099L27.647 58.7534L26.3756 60.1536C26.3291 59.3399 26.2779 58.4222 26.222 57.4099ZM26.5992 63.8151C26.5619 63.2237 26.5014 62.2776 26.4315 61.0335L28.0474 62.3249L26.5992 63.8151ZM28.2849 62.0789L26.7668 60.8632H29.4631L28.2849 62.0789ZM30.1802 63.5927L28.5457 62.2871L29.7658 61.0288C29.9381 62.131 30.0778 62.9919 30.1802 63.5927ZM29.6354 60.1631L28.1173 58.7344L29.2535 57.4808C29.3932 58.4742 29.519 59.3683 29.6354 60.1631ZM28.7786 53.791C28.895 54.7324 29.0067 55.6264 29.1138 56.4543L27.768 55.0919L28.7786 53.791Z" fill="#FFC000"/>
<path d="M40.9003 98.5194C38.0876 91.9912 36.9141 88.4291 36.9047 88.3912L36.8442 88.202H36.8163V83.8546H35.8104L35.7452 83.6181C34.134 77.6481 31.5355 66.6968 31.5075 66.588L31.5029 66.5786V65.1405H31.9685V64.5586C29.9196 64.9465 27.8426 64.9843 25.7564 64.8614C23.0508 65.1641 20.3452 65.2398 17.621 64.7431V65.1357H18.2496V66.8718H18.2776C17.8538 68.6458 15.572 78.1874 14.1097 83.6133L14.0445 83.8499H13.1178V88.254L13.0759 88.3865C13.062 88.4243 11.8931 91.9817 9.0804 98.5146C6.57504 104.329 3.64592 109.485 3.61798 109.537L3.35254 109.996H14.8688L14.8315 109.66C14.8269 109.617 14.4078 105.502 16.1401 101.429L16.1075 101.41C16.1075 101.41 16.1075 101.405 16.1122 101.4L16.1494 101.419C16.1727 101.358 18.6641 95.137 24.9927 95.0803C31.3166 95.137 33.8126 101.358 33.8359 101.419L33.8732 101.4C33.8732 101.405 33.8732 101.405 33.8732 101.41L33.8406 101.429C35.5682 105.497 35.1538 109.622 35.1491 109.66L35.1119 109.996H46.6281L46.3674 109.537C46.3301 109.49 43.401 104.333 40.9003 98.5194ZM40.4486 98.789C40.7 99.3756 40.9562 99.9575 41.2169 100.525L37.0631 97.7152L38.9444 95.1985C39.3822 96.2724 39.8804 97.4692 40.4486 98.789ZM31.8056 80.4107L29.0254 78.1874H33.5751L31.8056 80.4107ZM31.8614 81.0115L34.9116 83.4572H29.9195L31.8614 81.0115ZM29.0906 77.7238L30.8975 75.6849L33.5891 77.7238H29.0906ZM30.8463 75.0983L28.6203 73.4142H32.3364L30.8463 75.0983ZM28.5505 72.9506L30.0779 71.6308L32.1129 72.9506H28.5505ZM30.0499 71.0868L28.0475 69.7859L31.5261 69.8095L30.0499 71.0868ZM27.7867 68.8918L29.3561 68.0545L31.3166 68.8918H27.7867ZM29.7007 71.3848L28.0242 72.8324C27.8845 71.8626 27.7448 70.9165 27.6238 70.0366L29.7007 71.3848ZM30.5575 75.4294L28.7181 77.5014C28.5272 76.2526 28.3316 74.9138 28.136 73.594L30.5575 75.4294ZM31.5308 80.7513L29.5843 83.1971C29.4632 82.4212 29.1977 80.7135 28.8857 78.632L31.5308 80.7513ZM29.9195 88.5L28.0382 90.7802L25.4863 88.5H29.9195ZM30.1617 89.0582C30.334 89.8009 30.7298 91.3999 31.4284 93.803L28.4433 91.1397L30.1617 89.0582ZM30.7066 89.1434L34.0175 91.5229L32.0477 94.101C31.3352 91.679 30.9114 90.0091 30.7066 89.1434ZM34.4553 91.8351L38.1574 94.4937H32.4249L34.4553 91.8351ZM38.3577 95.085L36.616 97.4124L33.1653 95.085H38.3577ZM36.7231 98.174L40.9189 101.008H34.6043L36.7231 98.174ZM41.2076 101.599L39.6988 104.764L35.2562 101.599H41.2076ZM38.4648 94.0159L34.7999 91.3857L36.5834 89.0535C36.8442 89.8009 37.4449 91.4803 38.4648 94.0159ZM36.0991 88.7981L34.3575 91.0735L31.1909 88.7981H36.0991ZM35.191 83.1214L32.1315 80.6709L33.9663 78.3671C34.3947 80.056 34.8138 81.7022 35.191 83.1214ZM33.6916 77.2555L31.1862 75.3585L32.7788 73.5609C33.0675 74.7435 33.3749 75.9971 33.6916 77.2555ZM32.5739 72.7236L30.4271 71.3328L31.922 70.0413C32.1129 70.8408 32.3364 71.7491 32.5739 72.7236ZM31.5867 68.66L29.7147 67.8605L31.2048 67.0611C31.284 67.3922 31.4144 67.9457 31.5867 68.66ZM30.8649 66.886L29.3375 67.6997L27.4282 66.886H30.8649ZM28.9742 67.8936L27.4421 68.712C27.3676 68.1396 27.2978 67.6193 27.2372 67.1509L28.9742 67.8936ZM27.0603 68.8303L25.2674 67.922L26.8368 67.1131C26.8973 67.6193 26.9718 68.2011 27.0603 68.8303ZM26.4735 68.8918H23.3861L24.9135 68.1065L26.4735 68.8918ZM26.5993 66.8766L24.9135 67.747L23.1951 66.8766H26.5993ZM23.0089 67.1415L24.5642 67.9268L22.79 68.8398C22.8692 68.2201 22.9437 67.6429 23.0089 67.1415ZM9.06177 101.008L13.2575 98.174L15.3717 101.008H9.06177ZM14.7198 101.599L10.2725 104.764L8.76373 101.599H14.7198ZM11.6183 95.085H16.806L13.36 97.4124L11.6183 95.085ZM11.8186 94.4937L15.5161 91.8351L17.5464 94.4937H11.8186ZM15.9585 91.5181L19.2695 89.1386C19.0599 90.0091 18.6408 91.6742 17.9236 94.0916L15.9585 91.5181ZM21.7981 69.7859L19.7957 71.0868L18.3195 69.8095L21.7981 69.7859ZM18.529 68.8918L20.4616 68.064L22.003 68.8918H18.529ZM21.2905 72.9506H17.7281L19.7631 71.6308L21.2905 72.9506ZM21.2207 73.4142L18.9947 75.0983L17.5045 73.4142H21.2207ZM20.755 77.7238H16.2612L18.9528 75.6849L20.755 77.7238ZM20.8202 78.1826L18.0401 80.406L16.2705 78.1826H20.8202ZM19.9261 83.4572H14.9293L17.9795 81.0115L19.9261 83.4572ZM19.8469 88.9021L21.6724 91.116L18.5151 93.8929C19.2881 91.2532 19.6979 89.5691 19.8469 88.9021ZM20.2194 88.5H24.6481L22.0822 90.7565L20.2194 88.5ZM18.3102 80.7513L20.9552 78.632C20.6386 80.7135 20.3778 82.4212 20.2567 83.1971L18.3102 80.7513ZM19.2881 75.4294L21.705 73.5987C21.514 74.9185 21.3138 76.2573 21.1229 77.5062L19.2881 75.4294ZM20.1449 71.3848L22.2219 70.0366C22.1008 70.9212 21.9657 71.8673 21.8214 72.8324L20.1449 71.3848ZM20.8388 67.9078L22.6037 67.1557C22.5432 67.6287 22.4733 68.1633 22.3942 68.7404L20.8388 67.9078ZM22.4175 66.886L20.4756 67.7139L18.9249 66.886H22.4175ZM18.6315 67.0847L20.0984 67.87L18.2543 68.66C18.4219 67.9646 18.5523 67.4206 18.6315 67.0847ZM17.9236 70.0413L19.4185 71.3328L17.2717 72.7236C17.5092 71.7491 17.7281 70.8408 17.9236 70.0413ZM17.0668 73.5561L18.6594 75.3538L16.1541 77.2507C16.4707 75.9971 16.7781 74.7435 17.0668 73.5561ZM15.8747 78.3671L17.7094 80.6709L14.6499 83.1214C15.0271 81.7022 15.4509 80.056 15.8747 78.3671ZM18.7805 88.7981L15.6139 91.0735L13.8769 88.7981H18.7805ZM13.3926 89.0535L15.1761 91.3857L11.5112 94.0159C12.5264 91.4803 13.1318 89.8009 13.3926 89.0535ZM9.52745 98.789C10.0956 97.4692 10.5939 96.2724 11.0316 95.1985L12.9129 97.7152L8.75908 100.525C9.0152 99.9575 9.27132 99.3756 9.52745 98.789ZM8.22355 101.679L9.83945 105.071L4.63316 108.78C5.40153 107.375 6.79391 104.75 8.22355 101.679ZM4.72629 109.409L10.0909 105.592L11.9071 109.409H4.72629ZM14.3007 109.409H12.7825C13.0946 108.785 13.6999 107.522 14.4637 105.691C14.2215 107.418 14.2634 108.799 14.3007 109.409ZM12.3448 109.116L10.5193 105.284L15.4229 101.793C14.0259 105.639 12.8198 108.165 12.3448 109.116ZM15.8141 100.7L13.6999 97.8713L17.579 95.2506C17.2391 96.367 16.8479 97.6158 16.3916 98.9972C16.196 99.5885 16.005 100.151 15.8141 100.7ZM16.9411 98.9735C17.4114 97.5307 17.8165 96.2345 18.1658 95.085H21.7655C19.479 95.9507 17.9097 97.6064 16.9411 98.9735ZM18.678 94.4937L22.0309 91.5465L24.4618 94.4937H18.678ZM24.8157 94.0726L22.4314 91.187L24.8157 89.0913V94.0726ZM20.5547 83.8593L20.5734 83.7316C20.5873 83.6275 21.8866 75.3017 22.655 69.7764L24.9228 69.7622L27.1907 69.7764C27.959 75.3017 29.2536 83.6275 29.2723 83.7316L29.2909 83.8593H20.5547ZM25.3233 89.1008L27.6889 91.2106L25.3233 94.0774V89.1008ZM28.0894 91.5702L31.3632 94.4937H25.6819L28.0894 91.5702ZM28.2105 95.085H31.8102C32.1548 96.2345 32.56 97.5307 33.0349 98.9735C32.0663 97.6064 30.497 95.9507 28.2105 95.085ZM33.5845 98.9972C33.1327 97.6158 32.7369 96.367 32.397 95.2506L36.2761 97.8713L34.1619 100.7C33.971 100.151 33.78 99.5885 33.5845 98.9972ZM35.6707 109.409C35.7079 108.799 35.7499 107.418 35.5124 105.691C36.2714 107.522 36.8815 108.785 37.1935 109.409H35.6707ZM34.5531 101.793L39.4567 105.284L37.6312 109.116C37.1516 108.165 35.9501 105.639 34.5531 101.793ZM38.0689 109.409L39.8851 105.592L45.2451 109.409H38.0689ZM40.1319 105.071L41.7478 101.679C43.1821 104.75 44.5745 107.375 45.3382 108.78L40.1319 105.071Z" fill="#FFC000"/>
<path d="M31.8574 69.8086L31.8764 69.8372C31.8764 69.8277 31.8717 69.8181 31.8669 69.8086H31.8574Z" fill="#FFC000"/>
<path d="M17.9707 69.8372L17.9897 69.8086H17.9802C17.9802 69.8181 17.9755 69.8277 17.9707 69.8372Z" fill="#FFC000"/>
<path d="M25.3839 88.1309H24.8018V94.7395H25.3839V88.1309Z" fill="#FFD143"/>
<path d="M11.2322 88.3484C11.2182 88.3862 9.86775 91.9436 6.61265 98.4766C3.72544 104.286 0.339946 109.442 0.302692 109.494L0 109.958H10.543L10.6315 109.82C10.6547 109.783 13.0437 105.918 15.6142 99.1672C18.2407 92.2559 19.1394 88.566 19.1487 88.5282L19.2372 88.1592H11.3067L11.2322 88.3484ZM18.4875 88.7505C18.1988 89.8338 17.2115 93.3155 15.0694 98.9496C12.7922 104.934 10.6641 108.624 10.2217 109.362H1.08969C1.98379 107.961 4.7313 103.576 7.13887 98.7415C9.98417 93.0269 11.3859 89.5689 11.7072 88.7505H18.4875Z" fill="#FFD143"/>
<path d="M27.3556 66.6663L27.2441 66.9775L32.9729 69.0941L33.0843 68.7829L27.3556 66.6663Z" fill="#FFD143"/>
<path d="M32.1512 66.6699L27.6094 68.7744L27.7447 69.0757L32.2864 66.9711L32.1512 66.6699Z" fill="#FFD143"/>
<path d="M22.584 66.6822L22.4551 66.9863L27.6092 69.2402L27.7381 68.9361L22.584 66.6822Z" fill="#FFD143"/>
<path d="M27.1957 66.6766L22.1465 68.9385L22.278 69.2415L27.3273 66.9796L27.1957 66.6766Z" fill="#FFD143"/>
<path d="M32.5321 66.5404L32.4856 66.3701H27.0371L27.0744 66.635C27.7077 71.2379 29.9243 83.561 29.9476 83.684L29.9802 83.8732H37.5196L37.4264 83.5705C35.5637 77.6052 32.5601 66.654 32.5321 66.5404ZM30.3621 83.4144C30.0826 81.8627 28.192 71.2899 27.5633 66.8384H32.1363C32.5182 68.2292 35.1539 77.7992 36.8955 83.4144H30.3621Z" fill="#FFD143"/>
<path d="M33.8552 73.0131L29.1914 77.5732L29.5047 77.9039L34.1684 73.3437L33.8552 73.0131Z" fill="#FFD143"/>
<path d="M28.5503 72.9445L28.3027 73.334L35.3173 77.9346L35.5648 77.5451L28.5503 72.9445Z" fill="#FFD143"/>
<path d="M32.8035 69.5769L28.2959 72.9482L28.5665 73.3216L33.0741 69.9503L32.8035 69.5769Z" fill="#FFD143"/>
<path d="M27.915 69.3924L27.6963 69.7939L33.9061 73.2847L34.1248 72.8832L27.915 69.3924Z" fill="#FFD143"/>
<path d="M34.1715 72.9072H28.4297V73.3661H34.1715V72.9072Z" fill="#FFD143"/>
<path d="M35.5733 77.6758H29.1562V78.1394H35.5733V77.6758Z" fill="#FFD143"/>
<path d="M35.2791 77.7508L30.001 83.4814L30.3342 83.7982L35.6124 78.0676L35.2791 77.7508Z" fill="#FFD143"/>
<path d="M29.0586 78.2767L37.0776 83.8352L37.3337 83.452L29.3147 77.8936L29.0586 78.2767Z" fill="#FFD143"/>
<path d="M24.5322 68.8486V69.7143L33.4127 69.7664L33.1566 68.8486H24.5322Z" fill="#FFC000"/>
<path d="M17.3185 66.5404C17.2905 66.6492 14.2869 77.6005 12.4242 83.5705L12.3311 83.8732H19.8704L19.903 83.684C19.9263 83.561 22.1429 71.2379 22.7762 66.635L22.8135 66.3701H17.3651L17.3185 66.5404ZM22.2873 66.8384C21.6586 71.2852 19.7633 81.8627 19.4885 83.4144H12.9551C14.692 77.7992 17.3325 68.2292 17.7143 66.8384H22.2873Z" fill="#FFD143"/>
<path d="M15.9949 73.0141L15.6816 73.3447L20.3454 77.9048L20.6587 77.5742L15.9949 73.0141Z" fill="#FFD143"/>
<path d="M21.2986 72.9506L14.2773 77.541L14.5218 77.9269L21.543 73.3365L21.2986 72.9506Z" fill="#FFD143"/>
<path d="M17.051 69.5799L16.7803 69.9531L21.2862 73.3267L21.557 72.9535L17.051 69.5799Z" fill="#FFD143"/>
<path d="M21.9336 69.3867L15.7266 72.8818L15.9456 73.2832L22.1525 69.788L21.9336 69.3867Z" fill="#FFD143"/>
<path d="M21.4215 72.9072H15.6797V73.3661H21.4215V72.9072Z" fill="#FFD143"/>
<path d="M20.6952 77.6758H14.2734V78.1394H20.6952V77.6758Z" fill="#FFD143"/>
<path d="M14.5714 77.7543L14.2412 78.0674L19.5132 83.8043L19.8434 83.4912L14.5714 77.7543Z" fill="#FFD143"/>
<path d="M20.5327 77.8893L12.5146 83.4512L12.772 83.834L20.79 78.2721L20.5327 77.8893Z" fill="#FFD143"/>
<path d="M17.039 94.4463H8.9082V95.0376H17.039V94.4463Z" fill="#FFD143"/>
<path d="M11.7263 88.2545L11.293 88.6494L16.6449 94.7098L17.0783 94.3149L11.7263 88.2545Z" fill="#FFD143"/>
<path d="M18.7072 88.202L8.58984 94.4902L8.89364 94.9946L19.011 88.7064L18.7072 88.202Z" fill="#FFD143"/>
<path d="M19.2923 88.248L18.874 88.6592L24.7872 94.8665L25.2055 94.4553L19.2923 88.248Z" fill="#FFD143"/>
<path d="M24.9186 88.2142L16.9414 94.2891L17.2905 94.7622L25.2677 88.6873L24.9186 88.2142Z" fill="#FFD143"/>
<path d="M30.8972 88.2415L24.9883 94.4531L25.4069 94.864L31.3158 88.6524L30.8972 88.2415Z" fill="#FFD143"/>
<path d="M25.2733 88.2139L24.9209 88.6846L32.782 94.7589L33.1344 94.2882L25.2733 88.2139Z" fill="#FFD143"/>
<path d="M14.5148 100.96H5.50391V101.551H14.5148V100.96Z" fill="#FFD143"/>
<path d="M9.13213 94.5507L8.69434 94.9404L14.1147 101.224L14.5525 100.834L9.13213 94.5507Z" fill="#FFD143"/>
<path d="M16.4931 94.4961L5.35254 100.997L5.64248 101.51L16.7831 95.0088L16.4931 94.4961Z" fill="#FFD143"/>
<path d="M6.01599 101.113L5.50781 101.401L10.1305 109.805L10.6387 109.517L6.01599 101.113Z" fill="#FFD143"/>
<path d="M14.0197 100.987L0.400391 109.419L0.703315 109.924L14.3226 101.492L14.0197 100.987Z" fill="#FFD143"/>
<path d="M43.3826 98.4766C40.1322 91.9484 38.777 88.3862 38.7631 88.3484L38.6932 88.1592H30.7627L30.8512 88.5282C30.8605 88.566 31.7592 92.2559 34.3857 99.1672C36.9562 105.922 39.3452 109.783 39.3685 109.82L39.4523 109.958H49.4504H49.9953L49.6926 109.494C49.66 109.442 46.2745 104.286 43.3826 98.4766ZM39.7782 109.362C39.3359 108.619 37.2077 104.934 34.9305 98.9496C32.7884 93.3108 31.8012 89.8338 31.5124 88.7505H38.2974C38.6187 89.5736 40.0204 93.0269 42.8657 98.7415C45.2733 103.576 48.0208 107.966 48.9149 109.362H39.7782Z" fill="#FFD143"/>
<path d="M41.0868 94.4463H32.9561V95.0376H41.0868V94.4463Z" fill="#FFD143"/>
<path d="M38.2744 88.2563L32.9248 94.3184L33.3582 94.7131L38.7078 88.6511L38.2744 88.2563Z" fill="#FFD143"/>
<path d="M31.2912 88.2046L30.9873 88.709L41.1046 94.9984L41.4085 94.4941L31.2912 88.2046Z" fill="#FFD143"/>
<path d="M44.4914 100.96H35.4805V101.551H44.4914V100.96Z" fill="#FFD143"/>
<path d="M40.8694 94.5578L35.4375 100.83L35.8745 101.221L41.3064 94.9483L40.8694 94.5578Z" fill="#FFD143"/>
<path d="M33.5083 94.4905L33.2178 95.0029L44.3519 101.517L44.6425 101.005L33.5083 94.4905Z" fill="#FFD143"/>
<path d="M43.9804 101.11L39.3682 109.52L39.8767 109.807L44.4889 101.397L43.9804 101.11Z" fill="#FFD143"/>
<path d="M35.966 101.004L35.6641 101.51L49.2953 109.911L49.5973 109.406L35.966 101.004Z" fill="#FFD143"/>
<path d="M22.4651 66.6803L16.7363 68.7969L16.8477 69.1081L22.5765 66.9915L22.4651 66.6803Z" fill="#FFD143"/>
<path d="M17.6654 66.6772L17.5303 66.9785L22.0731 69.081L22.2082 68.7797L17.6654 66.6772Z" fill="#FFD143"/>
<path d="M33.0682 64.123H16.4854V65.0928H33.0682V64.123Z" fill="#FFD143"/>
<path d="M32.5281 65.0977H17.2119V66.8338H32.5281V65.0977Z" fill="#FFD143"/>
<path d="M17.2119 66.8338H17.5984L18.3482 65.6701L32.5281 65.4572V65.0977H17.2119V66.8338Z" fill="#FFC000"/>
<path d="M38.6605 83.8115H11.2832V86.1342H38.6605V83.8115Z" fill="#FFD143"/>
<path d="M38.6605 86.1338H11.2832V88.4565H38.6605V86.1338Z" fill="#FFD143"/>
<path d="M16.4336 69.7664L25.3188 69.7143V68.8486H16.6944L16.4336 69.7664Z" fill="#FFC000"/>
<path d="M11.6328 85.9635H11.9681L12.8203 84.9181L38.2278 84.3362V84.1328H11.6328V85.9635Z" fill="#FFC000"/>
<path d="M11.6328 88.1305H11.9681L12.8203 87.0851L38.2278 86.4985V86.2998H11.6328V88.1305Z" fill="#FFC000"/>
<path d="M38.6605 85.9639H11.2832V86.2997H38.6605V85.9639Z" fill="#FFC000"/>
<path d="M33.3566 94.4463H16.6387V95.0376H33.3566V94.4463Z" fill="#FFD143"/>
<path d="M14.25 101.135L14.7809 101.381C14.8088 101.32 17.7147 95.0423 25.0957 95.0376V94.4463C17.3328 94.4463 14.2826 101.069 14.25 101.135Z" fill="#FFD143"/>
<path d="M24.9043 94.4463V95.0376C32.2853 95.0423 35.1865 101.32 35.2144 101.381L35.7453 101.135C35.7174 101.069 32.6672 94.4463 24.9043 94.4463Z" fill="#FFD143"/>
<path d="M14.2592 101.125C12.4896 104.725 12.5781 108.273 12.6573 109.366H10.3848V109.957H13.3092L13.2673 109.621C13.2627 109.579 12.7784 105.463 14.7808 101.385L14.2592 101.125Z" fill="#FFD143"/>
<path d="M35.7413 101.125L35.2197 101.39C37.2175 105.458 36.7378 109.583 36.7332 109.626L36.6913 109.962H39.6157V109.37H37.3432C37.4271 108.273 37.5155 104.725 35.7413 101.125Z" fill="#FFD143"/>
<path d="M29.5426 49.6044L29.496 49.5571C28.3504 40.6069 27.2002 28.0046 27.0279 12.7154L27.0232 12.46H22.562L22.5574 12.7154C22.2035 44.1737 17.7097 64.3023 17.6631 64.501L18.1614 64.6193C18.166 64.6051 18.2033 64.4395 18.2592 64.1604L20.6667 62.5757L22.59 64.1699C22.5713 64.3969 22.5667 64.5199 22.562 64.5388L23.0696 64.5767C23.0696 64.5578 23.0836 64.3922 23.1022 64.0989L24.8066 62.4858L26.4924 64.1982C26.511 64.43 26.5203 64.5625 26.5203 64.5767L27.0279 64.5341C27.0279 64.5199 27.0186 64.4253 27.0093 64.2645L29.0024 62.5331L31.3261 64.0989C31.3913 64.4158 31.4332 64.5956 31.4379 64.6145L31.9315 64.4963C31.9082 64.3922 30.7114 59.0466 29.5053 49.6375L29.5426 49.6044ZM29.4029 52.6982L27.9686 51.3784L29.0583 50.1484C29.17 51.0378 29.2864 51.8846 29.4029 52.6982ZM28.4855 58.5026L26.9115 57.2538H29.8313L28.4855 58.5026ZM28.5041 58.9852L30.2877 60.4043H26.9767L28.5041 58.9852ZM26.7904 56.7949L28.1129 55.3615L29.794 56.7949H26.7904ZM28.0803 54.8554L26.5622 53.5592H29.2771L28.0803 54.8554ZM26.4411 53.0956L27.745 51.6244L29.3423 53.0956H26.4411ZM19.8332 56.7949L21.4956 55.3426L22.8461 56.7949H19.8332ZM22.8787 57.2538L21.2348 58.5074L19.8285 57.2538H22.8787ZM20.3314 53.5592H22.9811L21.5189 54.8364L20.3314 53.5592ZM20.3501 53.0956L21.8635 51.6338L23.1069 53.0956H20.3501ZM24.4387 15.918L23.7635 17.1101L23.1674 15.918H24.4387ZM23.0743 15.4544L23.7588 14.338L24.4341 15.4544H23.0743ZM25.8125 17.1622L25.1186 15.9133H26.4691L25.8125 17.1622ZM25.8171 17.5311L26.4877 18.7327H25.1885L25.8171 17.5311ZM25.0441 15.4544L25.7752 14.3002L26.5529 15.4544H25.0441ZM25.7193 17.3466L25.0068 18.6996C24.9975 17.8102 24.9882 16.9209 24.9882 16.0315L25.7193 17.3466ZM25.0115 19.1868H25.0162H25.0115C25.0115 19.1916 25.0115 19.1916 25.0115 19.1868ZM26.213 49.3774L27.3678 47.8778L28.8487 49.3774H26.213ZM28.886 49.841L27.7218 51.1513L26.3014 49.841H28.886ZM23.7029 56.7949L24.7926 55.3048L25.9242 56.7949H23.7029ZM25.8777 57.2538L24.8578 58.3844L23.9078 57.2538H25.8777ZM24.3409 41.6712L24.7554 40.1054L25.1559 41.6996C25.1605 41.7469 25.1605 41.7942 25.1605 41.8463H24.3316C24.3363 41.7895 24.3363 41.728 24.3409 41.6712ZM23.6983 24.6743L24.3782 23.52C24.3642 24.3148 24.3502 25.1095 24.3316 25.8995L23.6983 24.6743ZM25.1838 42.3099C25.1838 42.3335 25.1885 42.3572 25.1885 42.3761L24.7507 43.4594L24.3083 42.3761C24.3083 42.3525 24.313 42.3288 24.313 42.3051H25.1838V42.3099ZM25.2117 42.8965C25.2397 43.5493 25.2723 44.1879 25.3049 44.8218L24.8671 43.748L25.2117 42.8965ZM24.7507 44.0413L25.3328 45.4794C25.3375 45.5267 25.3375 45.5787 25.3421 45.626H24.164C24.164 45.5787 24.1686 45.5267 24.1733 45.4794L24.7507 44.0413ZM25.3934 46.6384C25.426 47.2864 25.4586 47.9203 25.4912 48.54L24.951 47.504L25.3934 46.6384ZM24.7647 47.1445L24.2105 46.0849H25.3002L24.7647 47.1445ZM24.5784 47.5088L24.0196 48.611C24.0522 47.9629 24.0848 47.3006 24.1174 46.6242L24.5784 47.5088ZM24.7694 47.873L25.5377 49.3442C25.5377 49.3537 25.5377 49.3679 25.5377 49.3774H24.0056L24.7694 47.873ZM25.5889 50.2904C25.6309 51.0567 25.6728 51.8041 25.7147 52.5279L24.9556 51.2932L25.5889 50.2904ZM25.547 38.9417L26.5995 40.1811L25.6588 41.5341C25.6215 40.6778 25.5843 39.8169 25.547 38.9417ZM25.7054 42.6079L26.8649 43.8899L25.8358 45.2949C25.7938 44.4197 25.7473 43.5209 25.7054 42.6079ZM25.4772 49.841L24.76 50.981L24.0569 49.841H25.4772ZM25.6774 53.0956H23.8147L24.7554 51.6055L25.6774 53.0956ZM25.6215 53.5592L24.788 54.6945L23.9218 53.5592H25.6215ZM24.5645 55.002L23.6005 56.3171C23.6471 55.5602 23.6936 54.7607 23.7402 53.9187L24.5645 55.002ZM25.0162 54.9973L25.7985 53.9282C25.8451 54.7276 25.8963 55.4893 25.9382 56.2083L25.0162 54.9973ZM25.8916 46.3782L27.135 47.6412L26.0313 49.0746C25.9848 48.1994 25.9382 47.3054 25.8916 46.3782ZM27.3399 47.3763L26.0686 46.0849H28.3365L27.3399 47.3763ZM25.9522 45.6213L27.0605 44.1075L28.4249 45.6213H25.9522ZM27.0419 43.6534L25.8264 42.3099H28.0245L27.0419 43.6534ZM25.7333 41.8463L26.7625 40.3703L28.0198 41.8463H25.7333ZM26.7438 39.9682L25.6262 38.6531H27.6612L26.7438 39.9682ZM25.5098 37.9814C25.4679 36.9738 25.4306 35.952 25.3934 34.916L26.4411 36.3541L25.5098 37.9814ZM25.3514 33.7996C25.3189 32.9008 25.2909 31.9878 25.263 31.07L26.1943 32.4041L25.3514 33.7996ZM25.2443 30.2564L26.1291 28.7048L27.0698 30.2564H25.2443ZM25.2257 29.8495C25.1978 28.9365 25.1745 28.0188 25.1512 27.0916L26.0034 28.4919L25.2257 29.8495ZM25.1279 26.0414C25.1093 25.1663 25.0907 24.2817 25.072 23.397L25.8451 24.7263L25.1279 26.0414ZM25.9755 24.9487L26.809 26.382H25.1931L25.9755 24.9487ZM25.9708 24.5087L25.1652 23.1227H26.7345L25.9708 24.5087ZM25.1326 22.6591L25.9196 21.0791L26.7578 22.6591H25.1326ZM25.0534 22.4225C25.0348 21.4102 25.0208 20.3884 25.0115 19.3666L25.8171 20.8898L25.0534 22.4225ZM25.0394 39.0363C25.0674 39.6939 25.0953 40.342 25.1233 40.9853L24.8299 39.8216L25.0394 39.0363ZM24.76 39.533L24.5412 38.6531H24.9975L24.76 39.533ZM24.6855 39.8169L24.3689 41.0042C24.3968 40.3088 24.4247 39.604 24.4527 38.8944L24.6855 39.8169ZM24.4061 22.0441L23.8333 20.8331L24.4341 19.7072C24.4247 20.4877 24.4154 21.2683 24.4061 22.0441ZM24.448 18.4773L23.8613 17.2993L24.4667 16.2302C24.4573 16.9777 24.4527 17.7298 24.448 18.4773ZM24.3782 18.728H23.051L23.7542 17.4791L24.3782 18.728ZM24.4387 19.1868C24.4387 19.2341 24.4387 19.2862 24.4387 19.3335L23.7402 20.6391L23.0557 19.1916H24.4387V19.1868ZM24.3968 22.4367C24.3968 22.5124 24.3922 22.5834 24.3922 22.6591H22.8508L23.7262 21.027L24.3968 22.4367ZM24.3596 23.1179L23.5772 24.4425L22.888 23.1179H24.3596ZM24.3223 26.3489C24.3223 26.3584 24.3223 26.3726 24.3223 26.382H22.6924L23.5679 24.8966L24.3223 26.3489ZM24.2897 42.8965L24.6343 43.748L24.2012 44.8218C24.2292 44.1926 24.2571 43.5493 24.2897 42.8965ZM24.2385 29.8164L23.4934 28.4398L24.3083 27.1011C24.285 28.0141 24.2664 28.9176 24.2385 29.8164ZM24.1174 33.932L23.3537 32.4088L24.2059 31.1031C24.1779 32.0587 24.15 33.0001 24.1174 33.932ZM23.2419 32.1817L22.5062 30.7152H24.2012L23.2419 32.1817ZM23.9824 34.1449H22.2221L23.214 32.6217L23.9824 34.1449ZM24.0708 34.6038L23.037 36.0939L22.1988 34.6038H24.0708ZM24.0848 34.9633C24.0522 35.9141 24.0196 36.8555 23.987 37.7827L23.1581 36.3068L24.0848 34.9633ZM24.5598 51.2932L23.8194 52.4664C23.8566 51.7616 23.8985 51.0331 23.9358 50.2809L24.5598 51.2932ZM23.838 41.5199L22.9253 40.1906L23.9451 38.9512C23.9078 39.8216 23.8706 40.6778 23.838 41.5199ZM22.7762 39.9777L21.8635 38.6484H23.8706L22.7762 39.9777ZM23.7635 41.8463H21.5608L22.7623 40.3893L23.7635 41.8463ZM23.6703 42.3099L22.4922 43.6202L21.5562 42.3099H23.6703ZM23.7914 42.6079C23.7542 43.5162 23.7123 44.4103 23.6703 45.2807L22.6598 43.8615L23.7914 42.6079ZM23.498 48.8428L22.4922 47.5939C22.8135 47.2533 23.186 46.8607 23.6191 46.4018C23.5819 47.2344 23.54 48.0481 23.498 48.8428ZM22.278 47.3243L21.2768 46.0849H23.4515C23.0882 46.4728 22.6831 46.9033 22.278 47.3243ZM23.4748 49.3395C23.4748 49.3537 23.4748 49.3632 23.4748 49.3774H20.7412C21.002 49.1361 21.4584 48.6772 22.264 47.8305L23.4748 49.3395ZM23.2419 49.841L21.8868 51.1466L20.7785 49.841H23.2419ZM22.1057 51.402L23.4375 50.1153C23.3909 51.0472 23.3397 51.9413 23.2931 52.8023L22.1057 51.402ZM23.54 57.3768L24.6157 58.6635L23.377 60.0401C23.4235 59.2406 23.4794 58.3512 23.54 57.3768ZM24.8485 58.9426L26.0686 60.4043H23.5306L24.8485 58.9426ZM25.0953 58.6682L26.0313 57.6275C26.0872 58.479 26.1384 59.2643 26.185 59.9738L25.0953 58.6682ZM26.0872 50.0964L27.5029 51.3973L26.2456 52.8165C26.1897 51.9508 26.1384 51.0425 26.0872 50.0964ZM28.9046 48.9611L27.5774 47.6176L28.5879 46.3072C28.6904 47.2202 28.7975 48.1048 28.9046 48.9611ZM28.4622 45.2286L27.2375 43.871L28.1828 42.589C28.2713 43.4925 28.3691 44.3771 28.4622 45.2286ZM28.0757 41.5341L26.9068 40.1622L27.8196 38.8518C27.9034 39.7696 27.9872 40.6589 28.0757 41.5341ZM27.7637 38.1896H25.6402L26.5808 36.5433L27.7637 38.1659C27.7637 38.1754 27.7637 38.1848 27.7637 38.1896ZM27.7264 37.7496L26.6973 36.3399L27.4936 34.9491C27.5681 35.9 27.6473 36.8366 27.7264 37.7496ZM26.5576 36.1459L25.4353 34.6038H27.4424L26.5576 36.1459ZM25.398 34.1449L26.3294 32.6027L27.4051 34.1449H25.398ZM27.4051 33.7617L26.4505 32.3946L27.2188 31.1221C27.2794 32.0162 27.3399 32.896 27.4051 33.7617ZM27.1955 30.7436L26.3154 32.2006L25.2816 30.7152H27.1955C27.1955 30.7247 27.1955 30.7342 27.1955 30.7436ZM27.1443 29.9536L26.2549 28.4871L26.986 27.2099C27.0372 28.1418 27.0884 29.0548 27.1443 29.9536ZM26.1291 28.279L25.2583 26.8456H26.9534L26.1291 28.279ZM26.9348 26.1644L26.0965 24.7263L26.809 23.4302C26.8463 24.3526 26.8882 25.2656 26.9348 26.1644ZM26.7578 22.2901L26.0127 20.8851L26.66 19.5842C26.6926 20.5019 26.7252 21.4007 26.7578 22.2901ZM26.6507 19.2247L25.9149 20.7006L25.114 19.1916H26.6507C26.6507 19.201 26.6507 19.2105 26.6507 19.2247ZM26.6367 18.6381L25.9149 17.3466L26.5715 16.0978C26.5902 16.9493 26.6088 17.8008 26.6367 18.6381ZM26.5576 15.1517L25.8777 14.1393L26.525 13.1175C26.5296 13.8034 26.5436 14.4799 26.5576 15.1517ZM26.4085 12.9756L25.7706 13.9832L25.0907 12.9756H26.4085ZM25.6681 14.144L24.9836 15.2273C24.9789 14.5272 24.9789 13.8224 24.9789 13.1222L25.6681 14.144ZM24.7228 30.7152H24.7414C24.774 31.8695 24.8113 33.0143 24.8532 34.1402H24.6203C24.6576 33.0143 24.6902 31.8742 24.7228 30.7152ZM24.6064 34.6038H24.8718C24.9137 35.8195 24.9603 37.0164 25.0068 38.1896H24.4806C24.5225 37.0164 24.5645 35.8195 24.6064 34.6038ZM24.4667 15.18L23.8613 14.1724L24.4713 13.179C24.4713 13.8413 24.4667 14.513 24.4667 15.18ZM24.3875 12.9756L23.7588 14.0021L23.1441 12.9756H24.3875ZM23.0603 13.1743L23.6564 14.1677L23.0277 15.1942C23.0417 14.5272 23.051 13.8555 23.0603 13.1743ZM23.0137 15.989L23.661 17.2899L22.9485 18.5482C22.9765 17.7062 22.9951 16.8547 23.0137 15.989ZM22.9346 19.1868H22.9579L22.9299 19.201C22.9299 19.1963 22.9299 19.1916 22.9346 19.1868ZM22.9299 19.3288L23.6378 20.8283L22.8228 22.3469C22.8601 21.3534 22.8973 20.3506 22.9299 19.3288ZM22.7809 23.3734L23.4515 24.6648L22.6598 26.0131C22.7017 25.1474 22.7436 24.2675 22.7809 23.3734ZM24.2105 26.8409L23.3723 28.2175L22.6226 26.8409H24.2105ZM22.5946 27.2383L23.2419 28.4351L22.4503 29.736C22.5015 28.9176 22.5527 28.085 22.5946 27.2383ZM22.4223 30.2043L23.363 28.6527L24.2292 30.2469C24.2292 30.2469 24.2292 30.2469 24.2292 30.2516H22.4223C22.4223 30.2375 22.4223 30.2233 22.4223 30.2043ZM22.3758 30.9423L23.1022 32.3946L22.1755 33.8138C22.2454 32.8771 22.3106 31.9168 22.3758 30.9423ZM22.0964 34.8687L22.8973 36.2926L21.8589 37.7922C21.938 36.8413 22.0218 35.8668 22.0964 34.8687ZM23.0184 36.5055L23.9684 38.1896H21.8542L23.0184 36.5055ZM21.7564 38.9323L22.6133 40.1764L21.5143 41.5151C21.5981 40.6731 21.6772 39.8169 21.7564 38.9323ZM21.4025 42.5984L22.2873 43.8379L21.1324 45.1198C21.2255 44.3062 21.3187 43.4594 21.4025 42.5984ZM21.0812 45.6213L22.4642 44.0838L23.5632 45.626L21.0812 45.6213ZM21.0067 46.2741L22.0498 47.5703C21.5096 48.1332 21.0113 48.6488 20.6853 48.9753C20.7878 48.1048 20.8996 47.2013 21.0067 46.2741ZM20.541 50.0775L21.6493 51.3784L20.1778 52.8023C20.2942 51.9366 20.4199 51.0283 20.541 50.0775ZM20.038 53.7768L21.2488 55.0777L19.6329 56.4921C19.7586 55.6454 19.8983 54.7371 20.038 53.7768ZM19.4792 57.4288L20.9415 58.7297L19.0136 60.1962C19.1579 59.3825 19.3116 58.4601 19.4792 57.4288ZM18.3616 63.6542C18.4827 63.0629 18.6503 62.1925 18.8552 61.0761L20.3687 62.3344L18.3616 63.6542ZM19.1719 60.8632H22.6086L20.69 62.1215L19.1719 60.8632ZM22.6179 63.7252L20.9834 62.3675L22.7902 61.1801C22.7157 62.2918 22.6598 63.1528 22.6179 63.7252ZM19.3488 60.4043L21.2162 58.9804L22.8135 60.4043H19.3488ZM22.8694 59.9644L21.5096 58.7534L23.0137 57.6086C22.9625 58.4648 22.9159 59.2501 22.8694 59.9644ZM23.0789 56.5158L21.7657 55.1061L23.2326 53.8241C23.1814 54.7702 23.1302 55.669 23.0789 56.5158ZM23.1395 63.5643C23.1814 62.9541 23.2419 62.0789 23.3164 60.972L24.5505 62.2303L23.1395 63.5643ZM23.7169 60.8632H25.9894L24.8113 61.9796L23.7169 60.8632ZM25.0674 62.2398L26.2595 61.1092C26.334 62.1972 26.3992 63.0534 26.4411 63.64L25.0674 62.2398ZM26.4737 56.6009C26.4179 55.7305 26.362 54.7986 26.3014 53.8146L27.8335 55.125L26.4737 56.6009ZM26.525 57.4099L28.2154 58.7534L26.7066 60.1536C26.6507 59.3399 26.5902 58.4222 26.525 57.4099ZM26.9674 63.8151C26.9208 63.2237 26.8509 62.2776 26.7671 61.0335L28.6857 62.3249L26.9674 63.8151ZM28.9698 62.0789L27.1676 60.8632H30.3668L28.9698 62.0789ZM31.219 63.5927L29.2864 62.2871L30.73 61.0288C30.9256 62.131 31.0979 62.9919 31.219 63.5927ZM30.5717 60.1631L28.7695 58.7344L30.1153 57.4808C30.283 58.4742 30.432 59.3683 30.5717 60.1631ZM29.5565 53.791C29.6916 54.7324 29.8266 55.6264 29.957 56.4543L28.3597 55.0919L29.5565 53.791Z" fill="#FFD143"/>
<path d="M22.8832 11.0127H21.3418L22.5665 12.7204H22.9111H26.6738H27.0184L28.2385 11.0127H26.7018H22.8832Z" fill="#FFD143"/>
<path opacity="0.4" d="M24.3084 12.2474C23.2141 12.1386 22.1337 11.8689 21.4258 11.0127H21.3467L22.5714 12.7157H27.0187L27.6613 11.8216C27.489 11.921 27.3027 12.0108 27.1071 12.0723C26.1944 12.3467 25.2444 12.342 24.3084 12.2474Z" fill="#FFC000"/>
<path d="M21.542 11.2871C21.6724 11.2634 22.2359 11.183 23.3582 11.1925C24.8158 11.2066 26.0917 11.0978 26.8135 11.8642C27.1535 12.2237 26.6133 12.7157 26.6133 12.7157H27.0184L28.2432 11.0127H21.3418L21.542 11.2871Z" fill="#FFC000"/>
<path d="M22.8366 8.93164H21.3418V11.0131H22.8366H26.7483H28.2385V8.93164H26.7483H22.8366Z" fill="#FFD143"/>
<path d="M21.556 10.3979C21.4815 10.3932 21.4116 10.3837 21.3418 10.3742V11.0129H28.2385V9.62207C26.1104 10.3317 23.754 10.5209 21.556 10.3979Z" fill="#FFC000"/>
<path d="M26.2316 5.96973H24.9137H24.6669H23.349C22.4456 6.35763 22.3105 7.4504 22.3105 7.4504H24.6715H24.9184H27.2793C27.27 7.4504 27.135 6.35763 26.2316 5.96973Z" fill="#FFD143"/>
<path d="M22.3949 7.08119C22.325 7.29407 22.3018 7.45018 22.3018 7.45018H27.2706C27.2706 7.45018 27.238 7.19 27.0983 6.87305C25.7152 7.29407 23.8338 7.59209 22.3949 7.08119Z" fill="#FFC000"/>
</g>
<defs>
<clipPath id="clip0_137_1266">
<rect width="50" height="110" fill="white"/>
</clipPath>
</defs>
</svg>
