<svg width="54" height="88" viewBox="0 0 54 88" fill="none" xmlns="http://www.w3.org/2000/svg">
<g clip-path="url(#clip0_252_1038)">
<path d="M52.65 30.3604H0.459961V75.7703H52.65V30.3604Z" fill="#ABB2B6"/>
<path d="M8.88023 77.6797C8.11023 77.6797 7.49023 78.3097 7.49023 79.0697V86.6697C7.49023 87.0897 7.84023 87.4397 8.26023 87.4397H9.51023C9.93023 87.4397 10.2802 87.0897 10.2802 86.6697V79.0697C10.2802 78.3097 9.65023 77.6797 8.88023 77.6797Z" fill="#142023"/>
<path d="M44.0101 77.6797C43.2401 77.6797 42.6201 78.3097 42.6201 79.0697V86.6697C42.6201 87.0897 42.9701 87.4397 43.3901 87.4397H44.6401C45.0601 87.4397 45.4101 87.0897 45.4101 86.6697V79.0697C45.4001 78.3097 44.7801 77.6797 44.0101 77.6797Z" fill="#142023"/>
<path d="M26.5597 19.9199C12.1497 19.9199 0.469727 24.5499 0.469727 30.2499C0.469727 30.2899 0.479727 30.3199 0.479727 30.3599H52.6497C52.6497 30.3199 52.6597 30.2899 52.6597 30.2499C52.6497 24.5399 40.9697 19.9199 26.5597 19.9199Z" fill="#5E6B73"/>
<path d="M47.7298 30.25H5.25977V78.87H47.7298V30.25Z" fill="#E0E0D6"/>
<path d="M47.7298 56.1396H5.25977V75.7696H47.7298V56.1396Z" fill="#F9AB2C"/>
<path d="M47.7298 75.6602H5.25977V79.6702H47.7298V75.6602Z" fill="#2E0000"/>
<path d="M12.0697 33.71C8.83973 33.71 6.21973 34.14 6.21973 34.68V55.09H17.9197V34.68C17.9197 34.14 15.2997 33.71 12.0697 33.71Z" fill="#142023"/>
<path d="M40.9496 33.7598C37.8196 33.7598 35.2796 34.1698 35.1196 34.6798H35.0996V55.0898H46.7996V34.6798H46.7796C46.6296 34.1698 44.0796 33.7598 40.9496 33.7598Z" fill="#142023"/>
<path d="M26.8201 33.7598C22.9701 33.7598 19.8401 34.1698 19.6401 34.6798H19.6201V55.0898H34.0201V34.6798H34.0001C33.8101 34.1698 30.6701 33.7598 26.8201 33.7598Z" fill="#142023"/>
<path d="M15.4602 79.4297L10.9902 85.2297H42.0002L37.7602 79.4297H15.4602Z" fill="#2E0000"/>
<path d="M38.3404 79.6396H14.6504V80.4196H38.3404V79.6396Z" fill="#6A2700"/>
<path d="M39.3302 81.2393H13.6602V82.0193H39.3302V81.2393Z" fill="#6A2700"/>
<path d="M40.6201 82.8496H12.3701V83.6296H40.6201V82.8496Z" fill="#6A2700"/>
<path d="M42.0002 84.4492H10.9902V85.2292H42.0002V84.4492Z" fill="#6A2700"/>
<path d="M5.25996 53.8896H0.459961V75.7696H5.25996V53.8896Z" fill="#CD7C00"/>
<path d="M52.5305 53.8896H47.7305V75.7696H52.5305V53.8896Z" fill="#CD7C00"/>
<path d="M53.1 29.8203H0V30.3603H53.1V29.8203Z" fill="#142023"/>
<path d="M47.7398 71.2803H5.25977V75.6603H47.7398V71.2803Z" fill="#FAC438"/>
<path opacity="0.2" d="M29.7599 33.8398L19.6299 43.9798V51.7698L34.0299 37.3698V34.6798H33.9999C33.8599 34.2998 32.1599 33.9898 29.7599 33.8398Z" fill="white"/>
<path opacity="0.2" d="M19.6299 55.0901H21.2899L34.0199 42.3501V40.0801L19.6299 54.4701V55.0901Z" fill="white"/>
<path opacity="0.2" d="M16.1697 33.9902L6.21973 43.9402V49.0702L17.9197 37.3702V34.6802C17.9197 34.4102 17.2497 34.1602 16.1697 33.9902Z" fill="white"/>
<path opacity="0.2" d="M6.21973 55.0504H7.87973L17.9197 45.0104V39.1904L6.21973 50.8804V55.0504Z" fill="white"/>
<path opacity="0.2" d="M45.0496 34.0596L35.0996 43.9996V50.0196L46.7996 38.3196V34.7396C46.7996 34.4696 46.1296 34.2296 45.0496 34.0596Z" fill="white"/>
<path opacity="0.2" d="M35.0996 55.1198H36.7596L46.7996 45.0798V42.7998L35.0996 54.4998V55.1198Z" fill="white"/>
<path d="M47.7402 75.6604H49.6602V33.4403L52.6502 30.3604H47.7402V75.6604Z" fill="#DBDEE0"/>
<path d="M3.39016 33.4403V75.6604H5.31016V30.3604H0.410156L3.39016 33.4403Z" fill="#DBDEE0"/>
<path d="M27.1495 64.6201C25.2795 64.6201 23.7695 66.1301 23.7695 68.0001C23.7695 69.8701 25.2795 71.3801 27.1495 71.3801C29.0195 71.3801 30.5295 69.8701 30.5295 68.0001C30.5295 66.1301 29.0095 64.6201 27.1495 64.6201Z" fill="#2E0000"/>
<path d="M27.1502 65.29C25.6802 65.29 24.4902 66.48 24.4902 67.95C24.4902 69.42 25.6802 70.61 27.1502 70.61C28.6202 70.61 29.8102 69.42 29.8102 67.95C29.8102 66.48 28.6202 65.29 27.1502 65.29Z" fill="#E0E0D6"/>
<path d="M11.5399 72.2803H9.70988C9.24988 72.2803 8.87988 72.6503 8.87988 73.1103C8.87988 73.5703 9.24988 73.9403 9.70988 73.9403H11.5299C11.9899 73.9403 12.3599 73.5703 12.3599 73.1103C12.3699 72.6503 11.9899 72.2803 11.5399 72.2803Z" fill="#B20009"/>
<path d="M43.1803 72.2803H41.3603C40.9003 72.2803 40.5303 72.6503 40.5303 73.1103C40.5303 73.5703 40.9003 73.9403 41.3603 73.9403H43.1803C43.6403 73.9403 44.0103 73.5703 44.0103 73.1103C44.0103 72.6503 43.6403 72.2803 43.1803 72.2803Z" fill="#B20009"/>
<path d="M0.459961 30.2499C0.459961 30.2899 0.469961 30.3199 0.469961 30.3599H7.63996C7.63996 30.3199 7.62996 30.2899 7.62996 30.2499C7.62996 25.0299 17.43 20.7099 30.14 20.0199C28.97 19.9599 27.77 19.9199 26.56 19.9199C12.14 19.9199 0.459961 24.5399 0.459961 30.2499Z" fill="#DBDEE0"/>
<path opacity="0.2" d="M26.5097 19.9199C25.2897 19.9199 24.0997 19.9599 22.9297 20.0199C35.6397 20.7099 45.4397 25.0299 45.4397 30.2499C45.4397 30.2899 45.4297 30.3199 45.4297 30.3599H52.5997C52.5997 30.3199 52.6097 30.2899 52.6097 30.2499C52.5997 24.5399 40.9197 19.9199 26.5097 19.9199Z" fill="white"/>
<path d="M31.6499 8.32031H21.1699V10.4303H31.6499V8.32031Z" fill="#142023"/>
<path d="M14.4501 0.262449L13.7334 0.988281L22.3224 9.46866L23.0391 8.74283L14.4501 0.262449Z" fill="#142023"/>
<path d="M38.3971 0.265481L29.8105 8.74707L30.5273 9.4727L39.1139 0.991109L38.3971 0.265481Z" fill="#142023"/>
<path d="M41.4199 0L39.9999 0.01V0H12.0899H10.8599C10.5199 0 10.1999 0.07 9.89992 0.2L5.66992 2.09L6.09992 3.02L9.99992 1.24C10.2999 1.1 10.6399 1.03 10.9699 1.03H12.5599V1.02H39.8099L41.1299 1.03C41.4599 1.03 41.7799 1.11 42.0799 1.24L45.9999 3.03L46.4299 2.1L42.4399 0.23C42.1099 0.08 41.7699 0 41.4199 0Z" fill="#142023"/>
<path d="M27.4598 9.37012H25.5898V15.6001H27.4598V9.37012Z" fill="#142023"/>
<path d="M41.8897 13.9404H11.6797V21.8404H41.8897V13.9404Z" fill="#5E6B73"/>
<path d="M30.5293 15.5703H13.4893V20.0003H30.5293V15.5703Z" fill="#142023"/>
<path d="M40.2301 15.5703H31.8701V20.0003H40.2301V15.5703Z" fill="#142023"/>
<path opacity="0.2" d="M37.76 30.2598H15V75.4898H37.76V30.2598Z" fill="white"/>
</g>
<defs>
<clipPath id="clip0_252_1038">
<rect width="53.1" height="87.44" fill="white"/>
</clipPath>
</defs>
</svg>
