<svg width="90" height="81" viewBox="0 0 90 81" fill="none" xmlns="http://www.w3.org/2000/svg">
<g clip-path="url(#clip0_137_1492)">
<path d="M45.0051 28.4785H5.55176V31.7528H45.0051V28.4785Z" fill="#7C563E"/>
<path d="M44.7537 31.7598L84.207 31.7598V28.4855L44.7537 28.4855V31.7598Z" fill="#7C563E"/>
<path d="M5.55176 29.8777V28.4785H84.204V30.9057L5.55176 29.8777Z" fill="#CCC1B9"/>
<path d="M55.841 20.5977L82.3066 20.5977V19.8648L55.841 19.8648V20.5977Z" fill="#8B5C38"/>
<path d="M55.8555 25.0791L82.208 25.0791V20.596L55.8555 20.596V25.0791Z" fill="#B0865D"/>
<path d="M33.9207 19.8643H7.45508V20.5972H33.9207V19.8643Z" fill="#8B5C38"/>
<path d="M33.9023 20.5977H7.5498V25.0807H33.9023V20.5977Z" fill="#B0865D"/>
<path d="M34.2884 19.2168H6.2959V19.864H34.2884V19.2168Z" fill="#D1B79F"/>
<path d="M7.5498 21.568V19.8643H82.2058V22.8244L7.5498 21.568Z" fill="#CCC1B9"/>
<path d="M8.09598 19.8643H7.45508V21.2254H8.09598V19.8643Z" fill="#B0865D"/>
<path d="M8.98172 19.8643H8.34082V21.2254H8.98172V19.8643Z" fill="#B0865D"/>
<path d="M11.3479 19.8643H10.707V21.2254H11.3479V19.8643Z" fill="#B0865D"/>
<path d="M12.2434 19.8643H11.6025V21.2254H12.2434V19.8643Z" fill="#B0865D"/>
<path d="M14.6087 19.8643H13.9678V21.2254H14.6087V19.8643Z" fill="#B0865D"/>
<path d="M15.4944 19.8643H14.8535V21.2254H15.4944V19.8643Z" fill="#B0865D"/>
<path d="M17.8606 19.8643H17.2197V21.2254H17.8606V19.8643Z" fill="#B0865D"/>
<path d="M18.7561 19.8643H18.1152V21.2254H18.7561V19.8643Z" fill="#B0865D"/>
<path d="M21.1214 19.8643H20.4805V21.2254H21.1214V19.8643Z" fill="#B0865D"/>
<path d="M22.0071 19.8643H21.3662V21.2254H22.0071V19.8643Z" fill="#B0865D"/>
<path d="M24.3831 19.8643H23.7422V21.2254H24.3831V19.8643Z" fill="#B0865D"/>
<path d="M25.2688 19.8643H24.6279V21.2254H25.2688V19.8643Z" fill="#B0865D"/>
<path d="M27.6341 19.8643H26.9932V21.2254H27.6341V19.8643Z" fill="#B0865D"/>
<path d="M28.5296 19.8643H27.8887V21.2254H28.5296V19.8643Z" fill="#B0865D"/>
<path d="M30.8958 19.8643H30.2549V21.2254H30.8958V19.8643Z" fill="#B0865D"/>
<path d="M31.7815 19.8643H31.1406V21.2254H31.7815V19.8643Z" fill="#B0865D"/>
<path d="M55.4665 19.8604L83.459 19.8604V19.2131L55.4665 19.2131V19.8604Z" fill="#D1B79F"/>
<path d="M81.6599 21.2227H82.3008V19.8616H81.6599V21.2227Z" fill="#B0865D"/>
<path d="M80.7751 21.2227H81.416V19.8616H80.7751V21.2227Z" fill="#B0865D"/>
<path d="M78.407 21.2227H79.0479V19.8616H78.407V21.2227Z" fill="#B0865D"/>
<path d="M77.5124 21.2227H78.1533V19.8616H77.5124V21.2227Z" fill="#B0865D"/>
<path d="M75.153 21.2227H75.7939V19.8616H75.153V21.2227Z" fill="#B0865D"/>
<path d="M74.2585 21.2227H74.8994V19.8616H74.2585V21.2227Z" fill="#B0865D"/>
<path d="M71.8894 21.2227H72.5303V19.8616H71.8894V21.2227Z" fill="#B0865D"/>
<path d="M71.0046 21.2227H71.6455V19.8616H71.0046V21.2227Z" fill="#B0865D"/>
<path d="M68.6355 21.2227H69.2764V19.8616H68.6355V21.2227Z" fill="#B0865D"/>
<path d="M67.7409 21.2227H68.3818V19.8616H67.7409V21.2227Z" fill="#B0865D"/>
<path d="M65.3718 21.2227H66.0127V19.8616H65.3718V21.2227Z" fill="#B0865D"/>
<path d="M64.487 21.2227H65.1279V19.8616H64.487V21.2227Z" fill="#B0865D"/>
<path d="M62.1189 21.2227H62.7598V19.8616H62.1189V21.2227Z" fill="#B0865D"/>
<path d="M61.2243 21.2227H61.8652V19.8616H61.2243V21.2227Z" fill="#B0865D"/>
<path d="M58.865 21.2227H59.5059V19.8616H58.865V21.2227Z" fill="#B0865D"/>
<path d="M57.9704 21.2227H58.6113V19.8616H57.9704V21.2227Z" fill="#B0865D"/>
<path d="M43.0063 11.5841C43.0063 11.5841 43.3645 11.4984 43.7792 11.2034C44.1939 10.9083 43.5247 9.60429 43.6755 8.75717C43.8263 7.91957 44.7311 6.58702 44.8725 6.74883C45.0139 6.91064 45.3532 7.31992 44.995 7.37703C44.6369 7.43414 44.0996 8.24319 44.2316 8.46211C44.3635 8.68102 44.8536 9.22356 44.8725 9.06175C44.8913 8.89994 45.1552 8.84283 45.1552 8.84283C45.1552 8.84283 44.5143 7.15811 45.4474 7.18666C46.3711 7.21522 45.7679 8.78572 45.7679 8.78572C45.7679 8.78572 45.9752 9.04272 46.0506 9.15693C46.126 9.27115 46.4653 9.33778 46.7952 9.72803C47.1156 10.1183 48.1524 16.1433 48.1524 16.1433H42.4785L43.0063 11.5841Z" fill="#142023"/>
<path d="M10.0654 35.75H5.55078V72.0049H10.0654V35.75Z" fill="#BC9875"/>
<path d="M6.29549 71.1396C6.15412 71.1396 6.04102 71.0254 6.04102 70.8826V36.4933C6.04102 36.3505 6.15412 36.2363 6.29549 36.2363C6.43687 36.2363 6.54997 36.3505 6.54997 36.4933V70.8731C6.55939 71.0159 6.43687 71.1396 6.29549 71.1396Z" fill="#B0865D"/>
<path d="M7.32284 71.1396C7.18146 71.1396 7.06836 71.0254 7.06836 70.8826V36.4933C7.06836 36.3505 7.18146 36.2363 7.32284 36.2363C7.46421 36.2363 7.57731 36.3505 7.57731 36.4933V70.8731C7.57731 71.0159 7.46421 71.1396 7.32284 71.1396Z" fill="#B0865D"/>
<path d="M8.34139 71.1396C8.20002 71.1396 8.08691 71.0254 8.08691 70.8826V36.4933C8.08691 36.3505 8.20002 36.2363 8.34139 36.2363C8.48277 36.2363 8.59587 36.3505 8.59587 36.4933V70.8731C8.59587 71.0159 8.48277 71.1396 8.34139 71.1396Z" fill="#B0865D"/>
<path d="M9.36873 71.1396C9.22736 71.1396 9.11426 71.0254 9.11426 70.8826V36.4933C9.11426 36.3505 9.22736 36.2363 9.36873 36.2363C9.51011 36.2363 9.62321 36.3505 9.62321 36.4933V70.8731C9.62321 71.0159 9.51011 71.1396 9.36873 71.1396Z" fill="#B0865D"/>
<path d="M10.075 72.1953H5.58862C5.39069 72.1953 5.23047 72.0335 5.23047 71.8336V71.8051C5.23047 71.6052 5.39069 71.4434 5.58862 71.4434H10.075C10.2729 71.4434 10.4331 71.6052 10.4331 71.8051V71.8336C10.4331 72.0335 10.2729 72.1953 10.075 72.1953Z" fill="#BC9875"/>
<path d="M10.7822 72.1953H4.83496V73.0329H10.7822V72.1953Z" fill="#B0865D"/>
<path d="M10.0756 35.7505H5.55156C5.37248 35.7505 5.22168 35.5982 5.22168 35.4174V35.3888C5.22168 35.208 5.37248 35.0557 5.55156 35.0557H10.0756C10.2547 35.0557 10.4055 35.208 10.4055 35.3888V35.4174C10.396 35.5982 10.2547 35.7505 10.0756 35.7505Z" fill="#BC9875"/>
<path d="M10.6681 34.3418H4.8623V35.0557H10.6681V34.3418Z" fill="#B0865D"/>
<path d="M24.8916 35.75H20.377V72.0049H24.8916V35.75Z" fill="#BC9875"/>
<path d="M21.1314 71.1301C20.9901 71.1301 20.877 71.0159 20.877 70.8731V36.4933C20.877 36.3505 20.9901 36.2363 21.1314 36.2363C21.2728 36.2363 21.3859 36.3505 21.3859 36.4933V70.8731C21.3859 71.0159 21.2728 71.1301 21.1314 71.1301Z" fill="#B0865D"/>
<path d="M22.149 71.1301C22.0076 71.1301 21.8945 71.0159 21.8945 70.8731V36.4933C21.8945 36.3505 22.0076 36.2363 22.149 36.2363C22.2904 36.2363 22.4035 36.3505 22.4035 36.4933V70.8731C22.4035 71.0159 22.2904 71.1301 22.149 71.1301Z" fill="#B0865D"/>
<path d="M23.1764 71.1301C23.035 71.1301 22.9219 71.0159 22.9219 70.8731V36.4933C22.9219 36.3505 23.035 36.2363 23.1764 36.2363C23.3177 36.2363 23.4308 36.3505 23.4308 36.4933V70.8731C23.4308 71.0159 23.3083 71.1301 23.1764 71.1301Z" fill="#B0865D"/>
<path d="M24.1949 71.1301C24.0535 71.1301 23.9404 71.0159 23.9404 70.8731V36.4933C23.9404 36.3505 24.0535 36.2363 24.1949 36.2363C24.3363 36.2363 24.4494 36.3505 24.4494 36.4933V70.8731C24.4494 71.0159 24.3363 71.1301 24.1949 71.1301Z" fill="#B0865D"/>
<path d="M24.9011 72.1865H20.4148C20.2169 72.1865 20.0566 72.0247 20.0566 71.8248V71.7963C20.0566 71.5964 20.2169 71.4346 20.4148 71.4346H24.9011C25.0991 71.4346 25.2593 71.5964 25.2593 71.7963V71.8248C25.2593 72.0247 25.0991 72.1865 24.9011 72.1865Z" fill="#BC9875"/>
<path d="M25.6084 72.1865H19.6611V73.0241H25.6084V72.1865Z" fill="#B0865D"/>
<path d="M24.9018 35.7505H20.3777C20.1987 35.7505 20.0479 35.5982 20.0479 35.4174V35.3888C20.0479 35.208 20.1987 35.0557 20.3777 35.0557H24.9018C25.0808 35.0557 25.2316 35.208 25.2316 35.3888V35.4174C25.2316 35.5982 25.0808 35.7505 24.9018 35.7505Z" fill="#BC9875"/>
<path d="M25.5051 34.3418H19.6992V35.0557H25.5051V34.3418Z" fill="#B0865D"/>
<path d="M39.7168 35.7412H35.2021V71.9961H39.7168V35.7412Z" fill="#BC9875"/>
<path d="M35.9566 71.1301C35.8153 71.1301 35.7021 71.0159 35.7021 70.8731V36.4933C35.7021 36.3505 35.8153 36.2363 35.9566 36.2363C36.098 36.2363 36.2111 36.3505 36.2111 36.4933V70.8731C36.2111 71.0159 36.098 71.1301 35.9566 71.1301Z" fill="#B0865D"/>
<path d="M36.9742 71.1301C36.8328 71.1301 36.7197 71.0159 36.7197 70.8731V36.4933C36.7197 36.3505 36.8328 36.2363 36.9742 36.2363C37.1156 36.2363 37.2287 36.3505 37.2287 36.4933V70.8731C37.2287 71.0159 37.1156 71.1301 36.9742 71.1301Z" fill="#B0865D"/>
<path d="M38.0015 71.1301C37.8602 71.1301 37.7471 71.0159 37.7471 70.8731V36.4933C37.7471 36.3505 37.8602 36.2363 38.0015 36.2363C38.1429 36.2363 38.256 36.3505 38.256 36.4933V70.8731C38.256 71.0159 38.1429 71.1301 38.0015 71.1301Z" fill="#B0865D"/>
<path d="M39.0201 71.1301C38.8787 71.1301 38.7656 71.0159 38.7656 70.8731V36.4933C38.7656 36.3505 38.8787 36.2363 39.0201 36.2363C39.1615 36.2363 39.2746 36.3505 39.2746 36.4933V70.8731C39.2746 71.0159 39.1615 71.1301 39.0201 71.1301Z" fill="#B0865D"/>
<path d="M39.7267 72.1865H35.2498C35.0518 72.1865 34.8916 72.0247 34.8916 71.8248V71.7963C34.8916 71.5964 35.0518 71.4346 35.2498 71.4346H39.7361C39.934 71.4346 40.0942 71.5964 40.0942 71.7963V71.8248C40.0942 72.0247 39.9246 72.1865 39.7267 72.1865Z" fill="#BC9875"/>
<path d="M40.4336 72.1865H34.4863V73.0241H40.4336V72.1865Z" fill="#B0865D"/>
<path d="M39.727 35.7407H35.2029C35.0238 35.7407 34.873 35.5884 34.873 35.4076V35.379C34.873 35.1982 35.0238 35.0459 35.2029 35.0459H39.727C39.906 35.0459 40.0568 35.1982 40.0568 35.379V35.4076C40.0568 35.598 39.906 35.7407 39.727 35.7407Z" fill="#BC9875"/>
<path d="M40.3303 34.3418H34.5244V35.0557H40.3303V34.3418Z" fill="#B0865D"/>
<path d="M45.0051 32.0859H5.55176V34.3513H45.0051V32.0859Z" fill="#BC9875"/>
<path d="M45.0049 31.7627H5.0332V32.0863H45.0049V31.7627Z" fill="#D1B79F"/>
<path d="M8.08666 28.4785H6.2959V31.7528H8.08666V28.4785Z" fill="#B0865D"/>
<path d="M12.8181 28.4785H11.0273V31.7528H12.8181V28.4785Z" fill="#B0865D"/>
<path d="M17.5398 28.4785H15.749V31.7528H17.5398V28.4785Z" fill="#B0865D"/>
<path d="M22.2712 28.4785H20.4805V31.7528H22.2712V28.4785Z" fill="#B0865D"/>
<path d="M26.9939 28.4785H25.2031V31.7528H26.9939V28.4785Z" fill="#B0865D"/>
<path d="M31.7156 28.4785H29.9248V31.7528H31.7156V28.4785Z" fill="#B0865D"/>
<path d="M41.1687 28.4785H39.3779V31.7528H41.1687V28.4785Z" fill="#B0865D"/>
<path d="M36.447 28.4785H34.6562V31.7528H36.447V28.4785Z" fill="#B0865D"/>
<path d="M45.9001 28.4785H44.1094V31.7528H45.9001V28.4785Z" fill="#B0865D"/>
<path d="M44.8823 27.1934H3.32715V28.4783H44.8823V27.1934Z" fill="#B0865D"/>
<path d="M44.9202 26.5459H2.84668V27.1931H44.9202V26.5459Z" fill="#BC9875"/>
<path d="M44.9294 26.5941H2.84648L2.11133 25.5566H44.9294V26.5941Z" fill="#B0865D"/>
<path d="M44.9294 25.0801H2.11133V25.5655H44.9294V25.0801Z" fill="#D1B79F"/>
<path d="M26.098 20.5693V21.3213H23.4402V22.0732H19.8963V22.8252H16.4656V23.5771H11.4703V24.329H5.91895V25.081H33.9397V24.329V23.5771V22.8252V22.0732V21.3213V20.5693H26.098Z" fill="#BC9875"/>
<path d="M44.8817 16.876H32.3652V17.4185H44.8817V16.876Z" fill="#BC9875"/>
<path d="M44.9855 17.418H44.7687H32.6387V19.2169H44.7687H44.9855H57.1156V17.418H44.9855Z" fill="#7C563E"/>
<path d="M44.892 16.1426H33.9023V16.8755H44.892V16.1426Z" fill="#D1B79F"/>
<path d="M34.5804 17.418H33.9395V18.7791H34.5804V17.418Z" fill="#B0865D"/>
<path d="M35.4661 17.418H34.8252V18.7791H35.4661V17.418Z" fill="#B0865D"/>
<path d="M38.0022 17.418H37.3613V18.7791H38.0022V17.418Z" fill="#B0865D"/>
<path d="M38.8977 17.418H38.2568V18.7791H38.8977V17.418Z" fill="#B0865D"/>
<path d="M41.4329 17.418H40.792V18.7791H41.4329V17.418Z" fill="#B0865D"/>
<path d="M42.3284 17.418H41.6875V18.7791H42.3284V17.418Z" fill="#B0865D"/>
<path d="M79.6885 72.0039H84.2031V35.749H79.6885V72.0039Z" fill="#BC9875"/>
<path d="M83.4498 71.1386C83.5912 71.1386 83.7043 71.0244 83.7043 70.8816V36.4923C83.7043 36.3496 83.5912 36.2354 83.4498 36.2354C83.3084 36.2354 83.1953 36.3496 83.1953 36.4923V70.8721C83.1953 71.0149 83.3178 71.1386 83.4498 71.1386Z" fill="#B0865D"/>
<path d="M82.4312 71.1386C82.5726 71.1386 82.6857 71.0244 82.6857 70.8816V36.4923C82.6857 36.3496 82.5726 36.2354 82.4312 36.2354C82.2899 36.2354 82.1768 36.3496 82.1768 36.4923V70.8721C82.1768 71.0149 82.2899 71.1386 82.4312 71.1386Z" fill="#B0865D"/>
<path d="M81.4137 71.1386C81.555 71.1386 81.6681 71.0244 81.6681 70.8816V36.4923C81.6681 36.3496 81.555 36.2354 81.4137 36.2354C81.2723 36.2354 81.1592 36.3496 81.1592 36.4923V70.8721C81.1592 71.0149 81.2723 71.1386 81.4137 71.1386Z" fill="#B0865D"/>
<path d="M80.3863 71.1386C80.5277 71.1386 80.6408 71.0244 80.6408 70.8816V36.4923C80.6408 36.3496 80.5277 36.2354 80.3863 36.2354C80.2449 36.2354 80.1318 36.3496 80.1318 36.4923V70.8721C80.1318 71.0149 80.2449 71.1386 80.3863 71.1386Z" fill="#B0865D"/>
<path d="M79.6794 72.1953H84.1658C84.3637 72.1953 84.5239 72.0335 84.5239 71.8336V71.8051C84.5239 71.6052 84.3637 71.4434 84.1658 71.4434H79.6794C79.4815 71.4434 79.3213 71.6052 79.3213 71.8051V71.8336C79.3213 72.0335 79.4815 72.1953 79.6794 72.1953Z" fill="#BC9875"/>
<path d="M78.9717 73.0332H84.9189V72.1956H78.9717V73.0332Z" fill="#B0865D"/>
<path d="M79.6795 35.7505H84.2035C84.3826 35.7505 84.5334 35.5982 84.5334 35.4174V35.3888C84.5334 35.208 84.3826 35.0557 84.2035 35.0557H79.6795C79.5004 35.0557 79.3496 35.208 79.3496 35.3888V35.4174C79.359 35.5982 79.5004 35.7505 79.6795 35.7505Z" fill="#BC9875"/>
<path d="M79.0838 35.0615H84.8896V34.3477H79.0838V35.0615Z" fill="#B0865D"/>
<path d="M64.8584 71.9971H69.373V35.7422H64.8584V71.9971Z" fill="#BC9875"/>
<path d="M68.6236 71.1291C68.765 71.1291 68.8781 71.0149 68.8781 70.8721V36.4923C68.8781 36.3496 68.765 36.2354 68.6236 36.2354C68.4822 36.2354 68.3691 36.3496 68.3691 36.4923V70.8721C68.3691 71.0149 68.4822 71.1291 68.6236 71.1291Z" fill="#B0865D"/>
<path d="M67.606 71.1291C67.7474 71.1291 67.8605 71.0149 67.8605 70.8721V36.4923C67.8605 36.3496 67.7474 36.2354 67.606 36.2354C67.4647 36.2354 67.3516 36.3496 67.3516 36.4923V70.8721C67.3516 71.0149 67.4647 71.1291 67.606 71.1291Z" fill="#B0865D"/>
<path d="M66.5787 71.1291C66.7201 71.1291 66.8332 71.0149 66.8332 70.8721V36.4923C66.8332 36.3496 66.7201 36.2354 66.5787 36.2354C66.4373 36.2354 66.3242 36.3496 66.3242 36.4923V70.8721C66.3242 71.0149 66.4467 71.1291 66.5787 71.1291Z" fill="#B0865D"/>
<path d="M65.5601 71.1291C65.7015 71.1291 65.8146 71.0149 65.8146 70.8721V36.4923C65.8146 36.3496 65.7015 36.2354 65.5601 36.2354C65.4188 36.2354 65.3057 36.3496 65.3057 36.4923V70.8721C65.3057 71.0149 65.4188 71.1291 65.5601 71.1291Z" fill="#B0865D"/>
<path d="M64.8536 72.1855H69.34C69.5379 72.1855 69.6981 72.0237 69.6981 71.8238V71.7953C69.6981 71.5954 69.5379 71.4336 69.34 71.4336H64.8536C64.6557 71.4336 64.4955 71.5954 64.4955 71.7953V71.8238C64.4861 72.0237 64.6557 72.1855 64.8536 72.1855Z" fill="#BC9875"/>
<path d="M64.1426 73.0361H70.0898V72.1985H64.1426V73.0361Z" fill="#B0865D"/>
<path d="M64.8533 35.7505H69.3773C69.5564 35.7505 69.7072 35.5982 69.7072 35.4174V35.3888C69.7072 35.208 69.5564 35.0557 69.3773 35.0557H64.8533C64.6742 35.0557 64.5234 35.208 64.5234 35.3888V35.4174C64.5234 35.5982 64.6742 35.7505 64.8533 35.7505Z" fill="#BC9875"/>
<path d="M64.2547 35.0547H70.0605V34.3408H64.2547V35.0547Z" fill="#B0865D"/>
<path d="M50.0293 71.999H54.5439L54.5439 35.7441H50.0293L50.0293 71.999Z" fill="#BC9875"/>
<path d="M53.7984 71.1291C53.9398 71.1291 54.0529 71.0149 54.0529 70.8721V36.4923C54.0529 36.3496 53.9398 36.2354 53.7984 36.2354C53.657 36.2354 53.5439 36.3496 53.5439 36.4923V70.8721C53.5439 71.0149 53.657 71.1291 53.7984 71.1291Z" fill="#B0865D"/>
<path d="M52.7799 71.1291C52.9212 71.1291 53.0343 71.0149 53.0343 70.8721V36.4923C53.0343 36.3496 52.9212 36.2354 52.7799 36.2354C52.6385 36.2354 52.5254 36.3496 52.5254 36.4923V70.8721C52.5254 71.0149 52.6385 71.1291 52.7799 71.1291Z" fill="#B0865D"/>
<path d="M51.7525 71.1291C51.8939 71.1291 52.007 71.0149 52.007 70.8721V36.4923C52.007 36.3496 51.8939 36.2354 51.7525 36.2354C51.6111 36.2354 51.498 36.3496 51.498 36.4923V70.8721C51.498 71.0149 51.6111 71.1291 51.7525 71.1291Z" fill="#B0865D"/>
<path d="M50.735 71.1291C50.8763 71.1291 50.9894 71.0149 50.9894 70.8721V36.4923C50.9894 36.3496 50.8763 36.2354 50.735 36.2354C50.5936 36.2354 50.4805 36.3496 50.4805 36.4923V70.8721C50.4805 71.0149 50.5936 71.1291 50.735 71.1291Z" fill="#B0865D"/>
<path d="M50.0285 72.1855H54.5148C54.7127 72.1855 54.8729 72.0237 54.8729 71.8238V71.7953C54.8729 71.5954 54.7127 71.4336 54.5148 71.4336H50.0285C49.8305 71.4336 49.6703 71.5954 49.6703 71.7953V71.8238C49.6609 72.0237 49.8305 72.1855 50.0285 72.1855Z" fill="#BC9875"/>
<path d="M49.3135 73.0293H55.2607V72.1917H49.3135V73.0293Z" fill="#B0865D"/>
<path d="M50.0281 35.7407H54.5522C54.7312 35.7407 54.882 35.5884 54.882 35.4076V35.379C54.882 35.1982 54.7312 35.0459 54.5522 35.0459H50.0281C49.849 35.0459 49.6982 35.1982 49.6982 35.379V35.4076C49.6982 35.598 49.849 35.7407 50.0281 35.7407Z" fill="#BC9875"/>
<path d="M49.4256 35.0479H55.2314V34.334H49.4256V35.0479Z" fill="#B0865D"/>
<path d="M44.7537 34.3437L84.207 34.3438V32.0784L44.7537 32.0784V34.3437Z" fill="#BC9875"/>
<path d="M44.7539 32.0811L84.7256 32.0811V31.7574L44.7539 31.7574V32.0811Z" fill="#D1B79F"/>
<path d="M81.6614 31.7598H83.4521V28.4855H81.6614V31.7598Z" fill="#B0865D"/>
<path d="M76.9407 31.7598H78.7314V28.4855H76.9407V31.7598Z" fill="#B0865D"/>
<path d="M72.2112 31.7598H74.002V28.4855H72.2112V31.7598Z" fill="#B0865D"/>
<path d="M67.4817 31.7598H69.2725V28.4855H67.4817V31.7598Z" fill="#B0865D"/>
<path d="M62.762 31.7598H64.5527V28.4855H62.762V31.7598Z" fill="#B0865D"/>
<path d="M58.0325 31.7598H59.8232V28.4855H58.0325V31.7598Z" fill="#B0865D"/>
<path d="M48.5823 31.7598H50.373V28.4855H48.5823V31.7598Z" fill="#B0865D"/>
<path d="M53.3118 31.7598H55.1025V28.4855H53.3118V31.7598Z" fill="#B0865D"/>
<path d="M43.8528 31.7598H45.6436V28.4855H43.8528V31.7598Z" fill="#B0865D"/>
<path d="M44.8706 28.4824L86.4258 28.4824V27.1975L44.8706 27.1975V28.4824Z" fill="#B0865D"/>
<path d="M44.8337 27.2002L86.9072 27.2002V26.6101L44.8337 26.6101V27.2002Z" fill="#BC9875"/>
<path d="M44.8252 26.5941H86.9081L87.6433 25.5566H44.8252V26.5941Z" fill="#B0865D"/>
<path d="M44.8294 25.5576L87.6475 25.5576V25.0722L44.8294 25.0722V25.5576Z" fill="#D1B79F"/>
<path d="M78.2848 24.329V23.5771H73.2895V22.8252H69.8588V22.0732H66.315V21.3213H63.6571V20.5693H55.8154V21.3213V22.0732V22.8252V23.5771V24.329V25.081H83.8362V24.329H78.2848Z" fill="#BC9875"/>
<path d="M44.8712 17.4219H57.3877V16.8793H44.8712V17.4219Z" fill="#BC9875"/>
<path d="M44.8678 16.8789H55.8574V16.146H44.8678V16.8789Z" fill="#D1B79F"/>
<path d="M55.1755 18.7803H55.8164V17.4192H55.1755V18.7803Z" fill="#B0865D"/>
<path d="M54.2907 18.7803H54.9316V17.4192H54.2907V18.7803Z" fill="#B0865D"/>
<path d="M51.7468 18.7803H52.3877V17.4192H51.7468V18.7803Z" fill="#B0865D"/>
<path d="M50.862 18.7803H51.5029V17.4192H50.862V18.7803Z" fill="#B0865D"/>
<path d="M48.3191 18.7803H48.96V17.4192H48.3191V18.7803Z" fill="#B0865D"/>
<path d="M47.4245 18.7803H48.0654V17.4192H47.4245V18.7803Z" fill="#B0865D"/>
<path d="M39.9151 14.2206C39.9151 14.2206 40.6126 14.0778 40.3393 13.0498C40.0659 12.0218 38.7935 11.2318 38.6333 10.8797C38.4637 10.5275 37.8982 8.10034 37.1819 7.95757C36.4656 7.82432 36.918 9.32819 37.0122 9.43289C37.1065 9.53759 37.2855 10.8416 37.0876 11.1176C36.8897 11.3936 36.5315 11.4412 36.6164 12.3359C36.6635 12.869 36.2959 13.2687 36.2959 13.3449C36.2959 13.4305 36.4467 15.2105 36.541 15.3437C36.6352 15.477 36.8331 15.9148 36.8331 15.9148L37.1065 15.3437L36.786 15.0677C36.786 15.0677 36.6541 13.7351 36.852 13.5733C37.0499 13.4115 37.917 13.4877 38.0018 13.6209C38.0961 13.7827 39.9151 14.2206 39.9151 14.2206Z" fill="#374245"/>
<path d="M41.6773 16.1424C41.6773 16.1424 41.5925 14.6195 41.4417 14.0009C41.2815 13.3726 40.7631 12.4779 40.8008 11.8021C40.8385 11.1263 41.3474 10.7171 41.4417 10.2507C41.5265 9.7938 41.6962 7.94727 42.0166 7.94727C42.3371 7.94727 42.4973 9.54632 42.6481 9.8985C42.7989 10.2507 43.0157 10.6314 43.2607 11.4214C43.5058 12.2114 43.8262 12.4018 43.7791 13.3726C43.732 14.353 43.6566 14.8956 43.6283 15.3048C43.6 15.7141 43.6566 16.1424 43.6566 16.1424H41.6773Z" fill="#374245"/>
<path d="M41.4512 8.50893C41.4512 9.0705 41.6962 9.51786 41.9978 9.51786C42.2994 9.51786 42.5445 9.06099 42.5445 8.50893C42.5445 7.94736 42.6293 7.5 41.9978 7.5C41.4512 7.5 41.4512 7.94736 41.4512 8.50893Z" fill="#374245"/>
<path d="M44.9859 4.68262H44.7031V15.9807H44.9859V4.68262Z" fill="#142023"/>
<path d="M44.8446 4.82533C44.232 4.82533 43.7324 4.2828 43.7324 3.607C43.7324 2.93121 44.232 2.38867 44.8446 2.38867C45.4572 2.38867 45.9567 2.93121 45.9567 3.607C45.9567 4.2828 45.4666 4.82533 44.8446 4.82533ZM44.8446 2.68374C44.3828 2.68374 44.0152 3.10254 44.0152 3.61652C44.0152 4.1305 44.3922 4.54931 44.8446 4.54931C45.3064 4.54931 45.674 4.1305 45.674 3.61652C45.674 3.10254 45.3064 2.68374 44.8446 2.68374Z" fill="#374245"/>
<path d="M44.4111 1.91329C44.4111 2.36065 44.6091 2.73186 44.8447 2.73186C45.0803 2.73186 45.2782 2.37017 45.2782 1.91329C45.2782 1.45642 45.0803 1.09473 44.8447 1.09473C44.6091 1.10424 44.4111 1.46594 44.4111 1.91329Z" fill="#374245"/>
<path d="M44.4485 1.58002C44.4485 1.58002 44.194 1.6181 44.1092 1.48484C44.0243 1.35159 44.062 0.942303 43.9207 0.913749C43.7887 0.885194 42.752 0 42.752 0C42.752 0 42.4598 0.742421 42.8179 1.4087C43.1761 2.07497 43.7227 2.36052 44.4579 2.2463C45.1836 2.13208 44.4485 1.58002 44.4485 1.58002Z" fill="#374245"/>
<path d="M45.2218 1.58002C45.2218 1.58002 45.4763 1.6181 45.5611 1.48484C45.646 1.35159 45.6083 0.942303 45.7496 0.913749C45.8816 0.885194 46.9184 0 46.9184 0C46.9184 0 47.2105 0.742421 46.8524 1.4087C46.4942 2.07497 45.9476 2.36052 45.2124 2.2463C44.4961 2.13208 45.2218 1.58002 45.2218 1.58002Z" fill="#374245"/>
<path d="M44.6182 0.96108C44.6182 1.12289 44.7218 1.25614 44.8444 1.25614C44.9669 1.25614 45.0706 1.12289 45.0706 0.96108C45.0706 0.799271 44.9763 0.666016 44.8444 0.666016C44.7218 0.666016 44.6182 0.799271 44.6182 0.96108Z" fill="#374245"/>
<path d="M90 73.0332H0V80.9999H90V73.0332Z" fill="#7C563E"/>
<path d="M39.9337 12.2598C39.9337 12.2598 40.4615 13.6304 38.9347 13.4495C38.388 13.3829 37.3607 13.1259 37.2664 13.2687C37.2193 13.3544 36.8423 13.2973 36.8517 13.5923C36.8517 13.5923 37.3701 13.4591 37.6434 13.5257C37.7188 13.5447 38.3974 13.8112 38.5577 13.8588C38.7273 13.9064 38.9818 14.4014 38.9912 14.487C39.0101 14.5727 39.0761 14.9915 39.1232 15.1533C39.1703 15.3151 38.7839 16.1432 38.7839 16.1432H40.405C40.405 16.1432 40.3013 15.3151 40.405 15.1438C40.5087 14.9629 40.4615 13.8303 40.3956 13.3258C40.3107 12.7357 39.9337 12.2598 39.9337 12.2598Z" fill="#142023"/>
<path d="M37.7947 11.9743C37.6062 12.1837 37.6816 13.2593 37.8419 13.6495C38.0021 14.0398 38.134 15.0963 38.1435 15.2676C38.1529 15.4294 38.0398 16.1528 38.0398 16.1528H38.4733C38.4733 16.1528 38.3885 15.3438 38.4074 15.22C38.4262 15.1058 38.5016 14.2682 38.4733 13.9731C38.4451 13.6781 38.9352 12.9357 38.6147 12.336C38.2848 11.7364 37.7947 11.9743 37.7947 11.9743Z" fill="#374245"/>
<path d="M37.6817 9.4703C37.7194 9.01342 37.6346 8.4804 37.6346 8.43281L36.7958 8.29004C36.7392 8.70884 36.9466 9.3656 37.0126 9.43222C37.1068 9.53692 37.2859 10.8409 37.088 11.1169C37.0031 11.2312 36.89 11.3168 36.7864 11.4406C36.9654 11.3454 37.1351 11.3644 37.2859 11.5072C37.4461 11.669 37.3047 12.2782 37.4744 12.2496C37.8137 12.1925 37.8702 11.0598 37.7666 10.7648C37.6629 10.4697 37.644 9.93669 37.6817 9.4703Z" fill="#142023"/>
<path d="M36.8807 7.85287C36.6733 7.84335 36.4377 8.04323 36.3906 8.11938C36.3434 8.19552 36.2586 9.09975 36.2869 9.26156C36.3152 9.42337 36.2869 9.75651 36.2869 9.97543C36.2869 10.1943 36.268 10.4323 36.4754 10.4323C36.6827 10.4323 36.8995 10.3657 37.0032 10.1182C37.1069 9.88025 37.1634 9.61374 37.3142 9.45193C37.465 9.29012 37.7195 8.49059 37.597 8.21456C37.4839 7.93853 37.2482 7.8719 36.8807 7.85287Z" fill="#374245"/>
<path d="M41.8003 12.888C41.9228 12.5644 42.1962 12.3835 42.2716 12.4597C42.3847 12.5549 42.3187 13.7066 42.3187 14.2015C42.3187 14.5251 42.4412 14.982 42.5449 15.4103C42.6391 15.8006 42.7145 16.1813 42.7145 16.1813L41.9982 16.1432V15.7054C41.9982 15.7054 42.0831 14.7345 41.9982 14.3729C41.9228 14.0207 41.7155 13.126 41.8003 12.888Z" fill="#142023"/>
<path d="M50.0091 14.2206C50.0091 14.2206 49.3117 14.0778 49.585 13.0498C49.8583 12.0218 51.1307 11.2318 51.2909 10.8797C51.4606 10.5275 52.0261 8.10034 52.7424 7.95757C53.4587 7.82432 53.0063 9.32819 52.912 9.43289C52.8178 9.53759 52.6387 10.8416 52.8366 11.1176C53.0346 11.3936 53.3927 11.4412 53.3079 12.3359C53.2608 12.869 53.6283 13.2687 53.6283 13.3449C53.6283 13.4305 53.4775 15.2105 53.3833 15.3437C53.289 15.477 53.0911 15.9148 53.0911 15.9148L52.8178 15.3437L53.1382 15.0677C53.1382 15.0677 53.2702 13.7351 53.0723 13.5733C52.8743 13.4115 52.0072 13.4877 51.9224 13.6209C51.8376 13.7827 50.0091 14.2206 50.0091 14.2206Z" fill="#374245"/>
<path d="M48.2568 16.1424C48.2568 16.1424 48.3417 14.6195 48.4925 14.0009C48.6527 13.3726 49.1711 12.4779 49.1334 11.8021C49.0957 11.1263 48.5867 10.7171 48.4925 10.2507C48.4076 9.7938 48.238 7.94727 47.9175 7.94727C47.5971 7.94727 47.4369 9.54632 47.2861 9.8985C47.1352 10.2507 46.9185 10.6314 46.6734 11.4214C46.4284 12.2114 46.1079 12.4018 46.155 13.3726C46.2022 14.353 46.2776 14.8956 46.3058 15.3048C46.3341 15.7141 46.2776 16.1424 46.2776 16.1424H48.2568Z" fill="#374245"/>
<path d="M48.4731 8.50893C48.4731 9.0705 48.228 9.51786 47.9264 9.51786C47.6248 9.51786 47.3798 9.06099 47.3798 8.50893C47.3798 7.94736 47.295 7.5 47.9264 7.5C48.4731 7.5 48.4731 7.94736 48.4731 8.50893Z" fill="#374245"/>
<path d="M49.9996 12.2598C49.9996 12.2598 49.4718 13.6304 50.9987 13.4495C51.5453 13.3829 52.5727 13.1259 52.6669 13.2687C52.714 13.3544 53.091 13.2973 53.0816 13.5923C53.0816 13.5923 52.5632 13.4591 52.2899 13.5257C52.2145 13.5447 51.5359 13.8112 51.3757 13.8588C51.206 13.9064 50.9516 14.4014 50.9421 14.487C50.9233 14.5727 50.8573 14.9915 50.8102 15.1533C50.7631 15.3151 51.1495 16.1432 51.1495 16.1432H49.5284C49.5284 16.1432 49.6321 15.3151 49.5284 15.1438C49.4247 14.9725 49.4718 13.8303 49.5378 13.3258C49.6132 12.7357 49.9996 12.2598 49.9996 12.2598Z" fill="#142023"/>
<path d="M52.1296 11.9743C52.3181 12.1837 52.2427 13.2593 52.0825 13.6495C51.9223 14.0398 51.7903 15.0963 51.7809 15.2676C51.7715 15.4294 51.8846 16.1528 51.8846 16.1528H51.4605C51.4605 16.1528 51.5453 15.3438 51.5264 15.22C51.5076 15.1058 51.4322 14.2682 51.4605 13.9731C51.4887 13.6781 50.9986 12.9357 51.3191 12.336C51.649 11.7364 52.1296 11.9743 52.1296 11.9743Z" fill="#374245"/>
<path d="M52.2429 9.4703C52.2052 9.01342 52.2901 8.4804 52.2901 8.43281L53.1289 8.29004C53.1854 8.70884 52.9781 9.3656 52.9121 9.43222C52.8179 9.53692 52.6388 10.8409 52.8367 11.1169C52.9215 11.2312 53.0346 11.3168 53.1383 11.4406C52.9592 11.3454 52.7896 11.3644 52.6388 11.5072C52.4786 11.669 52.6199 12.2782 52.4503 12.2496C52.111 12.1925 52.0544 11.0598 52.1581 10.7648C52.2618 10.4697 52.2806 9.93669 52.2429 9.4703Z" fill="#142023"/>
<path d="M53.0445 7.85287C53.2519 7.84335 53.4875 8.04323 53.5346 8.11938C53.5818 8.19552 53.6666 9.09975 53.6383 9.26156C53.61 9.42337 53.6383 9.75651 53.6383 9.97543C53.6383 10.1943 53.6572 10.4323 53.4498 10.4323C53.2425 10.4323 53.0257 10.3657 52.922 10.1182C52.8183 9.88025 52.7618 9.61374 52.611 9.45193C52.4602 9.29012 52.2057 8.49059 52.3282 8.21456C52.4413 7.93853 52.677 7.8719 53.0445 7.85287Z" fill="#374245"/>
<path d="M48.1242 12.888C48.0017 12.5644 47.7283 12.3835 47.6529 12.4597C47.5398 12.5549 47.6058 13.7066 47.6058 14.2015C47.6058 14.5251 47.4833 14.982 47.3796 15.4103C47.2854 15.8006 47.21 16.1813 47.21 16.1813L47.9263 16.1432V15.7054C47.9263 15.7054 47.8414 14.7345 47.9263 14.3729C48.0111 14.0207 48.209 13.126 48.1242 12.888Z" fill="#142023"/>
<path d="M44.9862 19.2168H44.7694H33.9023V25.08H44.7694H44.9862H55.8533V19.2168H44.9862Z" fill="#B0865D"/>
<path d="M54.9201 20.1689H34.8447V24.1285H54.9201V20.1689Z" fill="#BC9875"/>
<path d="M44.8636 17.418H44.2227V18.7791H44.8636V17.418Z" fill="#B0865D"/>
<path d="M45.7591 17.418H45.1182V18.7791H45.7591V17.418Z" fill="#B0865D"/>
<path d="M3.32715 27.5836V27.1934H86.428V27.8787L3.32715 27.5836Z" fill="#CCC1B9"/>
<path d="M55.8525 18.5322L66.9553 25.0808H55.8525V18.5322Z" fill="#CCC1B9"/>
<path d="M5.55176 35.75H10.0758L10.0852 71.4338H9.11443C9.11443 71.4338 9.36891 39.0528 8.85053 37.8059C8.20963 36.2925 5.55176 35.75 5.55176 35.75Z" fill="#DFD8D3"/>
<path d="M20.3672 35.75H24.8912L24.9006 71.4338H23.9393C23.9393 71.4338 24.1938 39.0528 23.6754 37.8059C23.0345 36.2925 20.3672 35.75 20.3672 35.75Z" fill="#DFD8D3"/>
<path d="M35.1934 35.75H39.7174L39.7268 71.4338H38.7655C38.7655 71.4338 39.0199 39.0528 38.5016 37.8059C37.8607 36.2925 35.1934 35.75 35.1934 35.75Z" fill="#DFD8D3"/>
<path d="M50.0186 35.75H54.5426L54.552 71.4338H53.5907C53.5907 71.4338 53.8451 39.0528 53.3267 37.8059C52.6858 36.2925 50.0186 35.75 50.0186 35.75Z" fill="#DFD8D3"/>
<path d="M64.8447 35.75H69.3688L69.3782 71.4338H68.4168C68.4168 71.4338 68.6713 39.0528 68.1529 37.8059C67.5026 36.2925 64.8447 35.75 64.8447 35.75Z" fill="#DFD8D3"/>
<path d="M79.6699 35.75H84.194L84.2034 71.4338H83.242C83.242 71.4338 83.4965 39.0528 82.9781 37.8059C82.3278 36.2925 79.6699 35.75 79.6699 35.75Z" fill="#DFD8D3"/>
<path d="M0 80.9999H90V73.0332L0 80.9999Z" fill="#7C563E"/>
</g>
<defs>
<clipPath id="clip0_137_1492">
<rect width="90" height="81" fill="white"/>
</clipPath>
</defs>
</svg>
