<svg width="67" height="110" viewBox="0 0 67 110" fill="none" xmlns="http://www.w3.org/2000/svg">
<g clip-path="url(#clip0_137_1721)">
<path d="M13.8824 102.602C14.361 100.561 13.0998 98.5176 11.0653 98.0375C9.0309 97.5574 6.99367 98.8226 6.51505 100.863C6.03643 102.904 7.29767 104.948 9.33211 105.428C11.3665 105.908 13.4038 104.643 13.8824 102.602Z" fill="#7DBD41"/>
<path d="M7.30659 99.118C8.78945 97.8558 10.2583 97.7244 11.4605 98.1514C9.98697 98.6723 8.93446 100.075 8.93446 101.727C8.93446 103.379 9.99164 104.786 11.4605 105.303C11.0675 105.443 10.6465 105.523 10.2021 105.523C7.27852 105.523 5.13142 102.201 7.30659 99.118Z" fill="#64992B"/>
<path d="M5.99724 101.408C6.58196 101.408 7.14329 101.502 7.67189 101.666C9.8798 102.365 11.489 104.407 11.5591 106.833H3.78464H0.430664C0.519542 103.825 2.97538 101.408 5.99724 101.408Z" fill="#7DBD41"/>
<path d="M5.99723 101.408C6.58196 101.408 7.14329 101.502 7.67188 101.666C5.46397 102.365 3.85481 104.407 3.78464 106.833H0.430664C0.519542 103.825 2.97538 101.408 5.99723 101.408Z" fill="#64992B"/>
<path d="M13.9543 100.441C14.5437 100.441 15.1097 100.526 15.6477 100.671C12.9252 101.413 10.9091 103.881 10.8623 106.837H7.47559C7.53172 103.294 10.4086 100.441 13.9543 100.441Z" fill="#64992B"/>
<path d="M15.6477 100.676C18.3702 101.417 20.3863 103.885 20.4331 106.842H10.8623C10.9138 103.881 12.9252 101.412 15.6477 100.676Z" fill="#7DBD41"/>
<path d="M38.1007 68.8473C37.8341 68.8238 37.6282 68.5986 37.6516 68.3452L37.6563 68.303C37.6797 68.0496 37.9136 67.8619 38.1849 67.8853H38.1896L38.3252 66.2899C38.4048 65.389 37.6797 64.5819 36.7208 64.4974C35.7618 64.4129 34.9104 65.084 34.8356 65.9849L34.6999 67.5803H34.7233C34.99 67.6038 35.1958 67.829 35.1724 68.0824L35.1677 68.1247C35.1443 68.3781 34.9104 68.5658 34.6391 68.5423H34.6157L33.8252 77.7113L37.3148 78.0116L38.1054 68.8426L38.1007 68.8473Z" fill="#CE974E"/>
<path d="M20.1101 59.8184L19.5535 66.2751L19.4693 67.2324L18.6787 76.4014L21.3965 76.636L22.1871 67.467H22.1964C22.463 67.4905 22.7016 67.3028 22.725 67.0494L22.7297 67.0072C22.7531 66.7538 22.5519 66.5285 22.2806 66.5051H22.2713L22.4069 64.9096C22.4864 64.0087 23.3331 63.3377 24.2921 63.4221C25.251 63.5066 25.9714 64.309 25.8965 65.2147L25.7609 66.8101H25.7375C25.4709 66.7866 25.2323 66.9743 25.2089 67.2277L25.2042 67.2699C25.1808 67.5233 25.3867 67.7486 25.6533 67.772H25.6767L24.8861 76.941L27.6086 77.1757L28.3992 68.0067H28.4132C28.6798 68.0301 28.9184 67.8424 28.9418 67.589L28.9465 67.5468C28.9699 67.2934 28.7687 67.0682 28.4974 67.0447H28.4834L28.619 65.4493C28.6985 64.5483 29.5452 63.8773 30.5042 63.9618C31.4631 64.0462 32.1835 64.8486 32.1086 65.7543L31.973 67.3497H31.959C31.6923 67.3263 31.4538 67.5139 31.4304 67.7673L31.4257 67.8096C31.4023 68.063 31.6081 68.2882 31.8748 68.3117H31.8888L31.0982 77.4807L33.8207 77.7153L34.6159 68.5463H34.6393C34.906 68.5697 35.1445 68.3821 35.1679 68.1287L35.1726 68.0864C35.196 67.833 34.9902 67.6078 34.7235 67.5843H34.7001L34.8358 65.9889C34.9153 65.088 35.762 64.4169 36.7209 64.5014C37.6799 64.5859 38.405 65.3883 38.3254 66.2939L38.1898 67.8893H38.1851C37.9185 67.8659 37.6799 68.0536 37.6565 68.307L37.6518 68.3492C37.6284 68.6026 37.8343 68.8278 38.1009 68.8513H38.1056L37.315 78.0203L40.0375 78.2549L40.828 69.0859L40.8561 69.0906C41.1227 69.1141 41.3613 68.9264 41.3847 68.673L41.3894 68.6307C41.4128 68.3774 41.2069 68.1521 40.9403 68.1287L40.9123 68.124L41.0479 66.5285C41.1274 65.6276 41.9741 64.9566 42.9331 65.041C43.892 65.1255 44.6124 65.9279 44.5375 66.8335L44.4019 68.429C44.1352 68.4055 43.8967 68.5932 43.878 68.8466L43.8733 68.8888C43.8499 69.1422 44.051 69.3675 44.3224 69.3909L43.5318 78.5646L46.2496 78.7992L47.6763 62.2162L20.1101 59.8184Z" fill="#EFB867"/>
<path d="M46.0247 49.6508C45.7581 49.6273 45.5569 49.4021 45.5756 49.1487L45.5803 49.1064C45.6037 48.853 45.8376 48.67 46.1042 48.6888L46.2399 47.0934C46.3194 46.1924 45.5944 45.3853 44.6354 45.3009C43.6765 45.2164 42.8251 45.8874 42.7503 46.7884L42.6146 48.3838L42.6427 48.3885C42.9093 48.412 43.1151 48.6372 43.0917 48.8906L43.0871 48.9328C43.0637 49.1862 42.8298 49.3739 42.5585 49.3504L42.5304 49.3458L41.7399 58.5148L39.0174 58.2801L39.8079 49.1111H39.8032C39.5366 49.0877 39.3308 48.8624 39.3542 48.609L39.3589 48.5668C39.3822 48.3134 39.6161 48.1257 39.8874 48.1492H39.8921L40.0278 46.5538C40.1073 45.6528 39.3822 44.8457 38.4233 44.7612C37.4644 44.6768 36.613 45.3478 36.5382 46.2487L36.4025 47.8442H36.4259C36.6925 47.8676 36.8983 48.0929 36.875 48.3463L36.8703 48.3885C36.8469 48.6419 36.613 48.8296 36.3417 48.8061H36.3183L35.5277 57.9751L32.8053 57.7405L33.5958 48.5715H33.5818C33.3152 48.548 33.1093 48.3228 33.1327 48.0694L33.1374 48.0272C33.1608 47.7738 33.3947 47.5861 33.666 47.6095H33.68L33.8157 46.0141C33.8952 45.1132 33.1701 44.3061 32.2112 44.2216C31.2522 44.1371 30.4009 44.8082 30.326 45.7091L30.1904 47.3045H30.2044C30.4711 47.328 30.6769 47.5532 30.6535 47.8066L30.6488 47.8489C30.6254 48.1023 30.3915 48.29 30.1202 48.2665H30.1062L29.3156 57.4355L26.5932 57.2009L27.3837 48.0319H27.3603C27.0937 48.0084 26.8879 47.7832 26.9113 47.5298L26.9159 47.4875C26.9393 47.2342 27.1732 47.0465 27.4445 47.0699H27.4679L27.6036 45.4745C27.6831 44.5735 26.958 43.7664 25.9991 43.682C25.0401 43.5975 24.1888 44.2685 24.1139 45.1695L23.9783 46.7649H23.9876C24.2543 46.7884 24.4601 47.0136 24.4367 47.267L24.432 47.3092C24.4086 47.5626 24.1748 47.7503 23.9034 47.7269H23.8941L23.1035 56.8959L20.3857 56.6613L47.9473 59.0497L45.2295 58.8151L46.0247 49.6508Z" fill="#CE974E"/>
<path d="M48.8639 48.932L48.8172 48.9273L49.3738 42.4705L21.8123 40.082L21.2556 46.5388L21.2182 46.5341C20.9516 46.5107 20.713 46.6984 20.6896 46.9518L20.6849 46.994C20.6615 47.2474 20.8673 47.4726 21.134 47.4961L21.1714 47.5008L20.3809 56.6698L23.0987 56.9044L23.8892 47.7354H23.8986C24.1652 47.7589 24.4038 47.5712 24.4271 47.3178L24.4318 47.2755C24.4552 47.0221 24.2541 46.7969 23.9828 46.7734H23.9734L24.1091 45.178C24.1886 44.2771 25.0353 43.606 25.9942 43.6905C26.9532 43.775 27.6782 44.5774 27.5987 45.483L27.463 47.0784H27.4396C27.173 47.055 26.9344 47.2427 26.9111 47.4961L26.9064 47.5383C26.883 47.7917 27.0888 48.0169 27.3554 48.0404H27.3788L26.5883 57.2094L29.3108 57.444L30.1013 48.275H30.1153C30.382 48.2985 30.6205 48.1108 30.6439 47.8574L30.6486 47.8152C30.672 47.5618 30.4662 47.3365 30.1995 47.3131H30.1855L30.3212 45.7176C30.4007 44.8167 31.2474 44.1457 32.2063 44.2301C33.1653 44.3146 33.8856 45.117 33.8108 46.0227L33.6751 47.6181H33.6611C33.3945 47.5946 33.1559 47.7823 33.1325 48.0357L33.1278 48.0779C33.1045 48.3313 33.3103 48.5566 33.5769 48.58H33.5909L32.8004 57.749L35.5229 57.9837L36.3134 48.8146H36.3368C36.6034 48.8381 36.842 48.6504 36.8654 48.397L36.8701 48.3548C36.8935 48.1014 36.6876 47.8762 36.421 47.8527H36.3976L36.5333 46.2573C36.6128 45.3563 37.4595 44.6853 38.4184 44.7698C39.3774 44.8542 40.1024 45.6566 40.0229 46.5623L39.8872 48.1577H39.8826C39.6159 48.1342 39.3774 48.3219 39.354 48.5753L39.3493 48.6176C39.3259 48.871 39.5271 49.0962 39.7984 49.1197H39.803L39.0125 58.2887L41.735 58.5233L42.5255 49.3543L42.5536 49.359C42.8202 49.3824 43.0588 49.1947 43.0822 48.9413L43.0869 48.8991C43.1102 48.6457 42.9044 48.4205 42.6378 48.397L42.6097 48.3923L42.7454 46.7969C42.8249 45.896 43.6716 45.2249 44.6305 45.3094C45.5895 45.3939 46.3145 46.1963 46.235 47.1019L46.0994 48.6973C45.8327 48.6739 45.5942 48.8616 45.5754 49.115L45.5708 49.1572C45.5474 49.4106 45.7485 49.6358 46.0198 49.6593L45.2293 58.8283L47.9471 59.0629L48.7376 49.8939L48.7844 49.8986C49.051 49.9221 49.2896 49.7344 49.313 49.481L49.3177 49.4387C49.3317 49.1807 49.1306 48.9554 48.8639 48.932Z" fill="#EFB867"/>
<path d="M47.7181 29.9984C47.4514 29.9749 47.2503 29.7497 47.269 29.4963L47.2737 29.4541C47.2971 29.2007 47.531 29.0177 47.7976 29.0365L47.9333 27.441C48.0128 26.5401 47.2877 25.733 46.3288 25.6485C45.3698 25.5641 44.5185 26.2351 44.4436 27.136L44.308 28.7315L44.336 28.7361C44.6027 28.7596 44.8085 28.9848 44.7851 29.2382L44.7804 29.2805C44.757 29.5339 44.5231 29.7216 44.2518 29.6981L44.2238 29.6934L43.4332 38.8624L40.7107 38.6278L41.5013 29.4588H41.4966C41.23 29.4353 41.0242 29.2101 41.0475 28.9567L41.0522 28.9145C41.0756 28.6611 41.3095 28.4734 41.5808 28.4968H41.5855L41.7212 26.9014C41.8007 26.0005 41.0756 25.1934 40.1167 25.1089C39.1577 25.0244 38.3064 25.6955 38.2315 26.5964L38.0959 28.1918H38.1192C38.3859 28.2153 38.5917 28.4405 38.5683 28.6939L38.5636 28.7361C38.5403 28.9895 38.3064 29.1772 38.035 29.1538H38.0117L37.2211 38.3228L34.4986 38.0882L35.2892 28.9192H35.2752C35.0085 28.8957 34.8027 28.6705 34.8261 28.4171L34.8308 28.3748C34.8542 28.1214 35.088 27.9337 35.3594 27.9572H35.3734L35.509 26.3618C35.5886 25.4608 34.8635 24.6537 33.9046 24.5693C32.9456 24.4848 32.0943 25.1558 32.0194 26.0568L31.8838 27.6522H31.8978C32.1644 27.6757 32.3702 27.9009 32.3469 28.1543L32.3422 28.1965C32.3188 28.4499 32.0849 28.6376 31.8136 28.6141H31.7996L31.009 37.7832L28.2865 37.5485L29.0771 28.3795H29.0537C28.7871 28.3561 28.5812 28.1308 28.6046 27.8774L28.6093 27.8352C28.6327 27.5818 28.8666 27.3941 29.1379 27.4176H29.1613L29.2969 25.8221C29.3765 24.9212 28.6514 24.1141 27.6925 24.0296C26.7335 23.9452 25.8821 24.6162 25.8073 25.5171L25.6716 27.1126H25.681C25.9476 27.136 26.1535 27.3613 26.1301 27.6147L26.1254 27.6569C26.102 27.9103 25.8681 28.098 25.5968 28.0745H25.5874L24.7969 37.2435L22.0791 37.0089L49.6407 39.3973L46.9229 39.1627L47.7181 29.9984Z" fill="#CE974E"/>
<path d="M50.5573 29.2757L50.5105 29.271L51.0672 22.8142L23.5056 20.4258L22.949 26.8826L22.9115 26.8779C22.6449 26.8544 22.4063 27.0421 22.383 27.2955L22.3783 27.3377C22.3549 27.5911 22.556 27.8164 22.8273 27.8398L22.8648 27.8445L22.0742 37.0135L24.792 37.2482L25.5826 28.0791H25.5919C25.8586 28.1026 26.0971 27.9149 26.1205 27.6615L26.1252 27.6193C26.1486 27.3659 25.9428 27.1407 25.6761 27.1172H25.6668L25.8024 25.5218C25.8819 24.6208 26.7286 23.9498 27.6876 24.0343C28.6465 24.1187 29.3716 24.9211 29.292 25.8268L29.1564 27.4222H29.133C28.8664 27.3987 28.6278 27.5864 28.6044 27.8398L28.5997 27.8821C28.5763 28.1354 28.7822 28.3607 29.0488 28.3841H29.0722L28.2816 37.5532L31.0041 37.7878L31.7947 28.6188H31.8087C32.0753 28.6422 32.3139 28.4545 32.3373 28.2011L32.342 28.1589C32.3654 27.9055 32.1642 27.6803 31.8929 27.6568H31.8789L32.0145 26.0614C32.094 25.1604 32.9407 24.4894 33.8997 24.5739C34.8586 24.6584 35.5837 25.4608 35.5042 26.3664L35.3685 27.9618H35.3545C35.0878 27.9384 34.8493 28.1261 34.8259 28.3795L34.8212 28.4217C34.7978 28.6751 35.0036 28.9003 35.2703 28.9238H35.2843L34.4938 38.0928L37.2162 38.3274L38.0068 29.1584H38.0302C38.2968 29.1819 38.5354 28.9942 38.5588 28.7408L38.5634 28.6985C38.5868 28.4451 38.3857 28.2199 38.1144 28.1965H38.091L38.2266 26.601C38.3062 25.7001 39.1528 25.0291 40.1118 25.1135C41.0707 25.198 41.7958 26.0004 41.7163 26.906L41.5806 28.5015H41.5759C41.3093 28.478 41.0707 28.6657 41.0473 28.9191L41.0427 28.9613C41.0193 29.2147 41.2251 29.4399 41.4917 29.4634H41.4964L40.7059 38.6324L43.4283 38.867L44.2189 29.698L44.2469 29.7027C44.5136 29.7262 44.7521 29.5385 44.7755 29.2851L44.7802 29.2429C44.8036 28.9895 44.5978 28.7642 44.3311 28.7408L44.3031 28.7361L44.4387 27.1407C44.5183 26.2397 45.3649 25.5687 46.3239 25.6532C47.2828 25.7376 48.0032 26.54 47.9284 27.4457L47.7927 29.0411C47.5261 29.0176 47.2875 29.2053 47.2688 29.4587L47.2641 29.5009C47.2407 29.7543 47.4419 29.9796 47.7132 30.003L46.9226 39.1721L49.6404 39.4067L50.431 30.2377L50.4778 30.2423C50.7444 30.2658 50.983 30.0781 51.0064 29.8247L51.011 29.7825C51.0251 29.5244 50.8239 29.2992 50.5573 29.2757Z" fill="#EFB867"/>
<path d="M49.5804 19.5957L46.493 19.3283L47.1479 11.7453H47.1432C46.8392 11.7171 46.61 11.4638 46.6334 11.1775L46.638 11.1306C46.6614 10.8444 46.9327 10.6332 47.2368 10.6567H47.2415L47.3958 8.84538C47.4847 7.82243 46.6661 6.90741 45.5762 6.81356C45.4405 6.79948 45.3049 6.80417 45.1739 6.81825C45.0429 6.83233 44.9166 6.85579 44.795 6.89333C44.6734 6.93087 44.5564 6.97779 44.4441 7.0341C43.8875 7.32503 43.4899 7.85997 43.4384 8.49814L43.2841 10.3094H43.3121C43.6162 10.3376 43.8454 10.591 43.822 10.8772L43.8173 10.9241C43.7939 11.2104 43.5226 11.4215 43.2186 11.3981H43.1905L42.5356 18.981L39.4483 18.7136L40.1032 11.1306H40.0891C39.7851 11.1024 39.5559 10.849 39.5792 10.5628L39.5839 10.5159C39.6073 10.2296 39.8786 10.0185 40.1827 10.042H40.1967L40.3511 8.23067C40.44 7.20772 39.6213 6.2927 38.5314 6.19885C37.4415 6.105 36.4779 6.86517 36.389 7.88812L36.2346 9.6994H36.2533C36.5574 9.72756 36.7866 9.98095 36.7632 10.2672L36.7492 10.3235C36.7258 10.6097 36.4545 10.8209 36.1504 10.7974H36.1317L35.4768 18.3804L32.3895 18.1129L33.0444 10.53H33.021C32.7169 10.5018 32.4877 10.2484 32.5111 9.96218L32.5158 9.91526C32.5392 9.62902 32.8105 9.41786 33.1145 9.44132H33.1379L33.2923 7.63004C33.325 7.24526 33.2315 6.87925 33.0444 6.56017C32.9836 6.45693 32.9087 6.3537 32.8245 6.26454C32.4924 5.89853 32.0199 5.64514 31.4726 5.59822C30.7897 5.53722 30.1629 5.81407 29.7606 6.27862C29.522 6.55547 29.3629 6.90271 29.3302 7.28749L29.1758 9.09877H29.1852C29.4892 9.12693 29.7185 9.38032 29.6951 9.66656L29.6904 9.71348C29.667 9.99972 29.3957 10.2109 29.0916 10.1874H29.0823L28.4274 17.7704L25.3447 17.5029L49.5804 19.5957L50.2353 12.0128L49.5804 19.5957Z" fill="#CE974E"/>
<path d="M50.3618 10.928L50.329 10.9233L50.8389 4.99674L26.6079 2.89453L26.0981 8.82107H26.056C25.7519 8.79292 25.4806 9.00877 25.4572 9.29501L25.4525 9.34193C25.4291 9.62817 25.6583 9.88156 25.9624 9.90972L26.0045 9.91441L25.3496 17.4974L28.4323 17.7649L29.0872 10.1819H29.0965C29.4006 10.21 29.6719 9.99418 29.6953 9.70794L29.7 9.66102C29.7233 9.37478 29.4941 9.12139 29.1901 9.09323H29.1807L29.3351 7.28196C29.3678 6.89718 29.5222 6.54994 29.7654 6.27308C30.1631 5.80853 30.7946 5.53637 31.4775 5.59268C32.0201 5.6396 32.4973 5.893 32.8294 6.25901C32.9136 6.35285 32.9838 6.4514 33.0493 6.55463C33.2364 6.86902 33.3299 7.23972 33.2972 7.6245L33.1428 9.43578H33.1194C32.8154 9.40763 32.5441 9.62348 32.5207 9.90972L32.516 9.95664C32.4926 10.2429 32.7218 10.4963 33.0259 10.5244H33.0493L32.3944 18.1074L35.4817 18.3749L36.1319 10.7919H36.1506C36.4547 10.82 36.726 10.6042 36.7494 10.318L36.7541 10.271C36.7775 9.9848 36.5482 9.73141 36.2442 9.70325H36.2255L36.3798 7.89197C36.4687 6.86902 37.4323 6.10885 38.5223 6.2027C39.6122 6.29655 40.4308 7.21157 40.3419 8.23452L40.1876 10.0458H40.1735C39.8695 10.0176 39.5982 10.2335 39.5748 10.5197L39.5701 10.5667C39.5467 10.8529 39.7759 11.1063 40.08 11.1344H40.094L39.4391 18.7174L42.5265 18.9849L43.1814 11.4019H43.2094C43.5135 11.4301 43.7848 11.2142 43.8082 10.928L43.8129 10.8811C43.8362 10.5948 43.607 10.3414 43.303 10.3133H43.2749L43.4293 8.50199C43.4854 7.86382 43.883 7.32419 44.435 7.03795C44.5473 6.98164 44.6642 6.93002 44.7858 6.89718C44.9075 6.85964 45.0338 6.83617 45.1647 6.8221C45.2957 6.80802 45.4314 6.80802 45.567 6.8174C46.657 6.91125 47.4756 7.82628 47.3867 8.84923L47.2323 10.6605H47.2276C46.9236 10.6324 46.6523 10.8482 46.6289 11.1344L46.6242 11.1814C46.6008 11.4676 46.83 11.721 47.1341 11.7492H47.1388L46.4839 19.3321L49.5712 19.5996L50.2261 12.0166L50.2589 12.0213C50.5629 12.0495 50.8342 11.8336 50.8576 11.5474L50.8623 11.5005C50.895 11.2095 50.6658 10.9561 50.3618 10.928Z" fill="#EFB867"/>
<path d="M46.7381 82.1129L17.5215 79.5801L15.119 107.467L44.3356 110L46.7381 82.1129Z" fill="#FFD895"/>
<path d="M30.095 87.562L28.2822 108.604L31.1671 108.855L32.9799 87.8121L30.095 87.562Z" fill="#EFB867"/>
<path d="M23.5071 86.9927L21.6943 108.035L24.5792 108.285L26.392 87.2428L23.5071 86.9927Z" fill="#EFB867"/>
<path d="M36.6829 88.1353L34.8701 109.178L37.755 109.428L39.5678 88.3853L36.6829 88.1353Z" fill="#EFB867"/>
<path d="M43.2669 88.7065L41.4541 109.749L44.3343 109.999L46.1471 88.9562L43.2669 88.7065Z" fill="#EFB867"/>
<path d="M16.9329 86.4214L15.1201 107.464L18.0003 107.714L19.8131 86.6711L16.9329 86.4214Z" fill="#EFB867"/>
<path d="M46.7356 82.112L17.5181 79.5781L16.9287 86.4197L19.8056 86.6684L19.9506 84.9744C20.0348 84.0172 20.9329 83.3086 21.948 83.3978C22.9677 83.4869 23.7302 84.341 23.646 85.2982L23.501 86.9922L26.3872 87.2409L26.5322 85.5469C26.6164 84.5897 27.5146 83.8811 28.5296 83.9702C29.5494 84.0594 30.3119 84.9134 30.2277 85.8707L30.0827 87.5647L32.9689 87.8134L33.1139 86.1194C33.1981 85.1621 34.0962 84.4536 35.1113 84.5427C36.131 84.6319 36.8935 85.4859 36.8093 86.4432L36.6643 88.1371L39.5505 88.3858L39.6955 86.6919C39.7797 85.7346 40.6779 85.026 41.6929 85.1152C42.7127 85.2044 43.4752 86.0584 43.391 87.0156L43.246 88.7096L46.1228 88.9583L46.7356 82.112Z" fill="#EFB867"/>
<path d="M19.8338 86.674L16.8774 86.4159C16.6015 86.3924 16.3582 86.5989 16.3348 86.8757V86.8851C16.3114 87.162 16.5173 87.406 16.7932 87.4294L19.7496 87.6875C20.0256 87.711 20.2688 87.5045 20.2922 87.2277V87.2183C20.3156 86.9461 20.1098 86.7021 19.8338 86.674Z" fill="#EFB867"/>
<path d="M26.4103 87.2465L23.4867 86.9931C23.2014 86.9696 22.9488 87.1667 22.9254 87.4342L22.9207 87.4764C22.8973 87.7439 23.1125 87.9832 23.3978 88.0067L26.3214 88.2601C26.6068 88.2835 26.8594 88.0864 26.8828 87.819L26.8875 87.7767C26.9108 87.5093 26.6957 87.27 26.4103 87.2465Z" fill="#EFB867"/>
<path d="M33.006 87.8188L30.0824 87.5654C29.7971 87.5419 29.5445 87.739 29.5211 88.0065L29.5164 88.0487C29.493 88.3162 29.7082 88.5555 29.9935 88.5789L32.9171 88.8323C33.2025 88.8558 33.4551 88.6587 33.4785 88.3912L33.4832 88.349C33.5019 88.0815 33.2914 87.8422 33.006 87.8188Z" fill="#EFB867"/>
<path d="M39.6017 88.391L36.6781 88.1376C36.3928 88.1142 36.1402 88.3113 36.1168 88.5787L36.1121 88.621C36.0887 88.8884 36.3039 89.1277 36.5892 89.1512L39.5128 89.4046C39.7982 89.4281 40.0508 89.231 40.0742 88.9635L40.0789 88.9213C40.0976 88.6538 39.8824 88.4145 39.6017 88.391Z" fill="#EFB867"/>
<path d="M46.2117 88.964L43.2554 88.7059C42.9794 88.6825 42.7361 88.8889 42.7127 89.1658V89.1752C42.6894 89.452 42.8952 89.696 43.1712 89.7195L46.1275 89.9776C46.4035 90.001 46.6468 89.7946 46.6702 89.5177V89.5083C46.6935 89.2315 46.4877 88.9875 46.2117 88.964Z" fill="#EFB867"/>
<path opacity="0.58" d="M46.9322 78.8515L46.2445 78.7905L46.876 71.4609L47.0351 69.6214L47.0819 69.6261C47.3485 69.6496 47.5871 69.4619 47.6104 69.2085L47.6151 69.1663C47.6385 68.9129 47.4327 68.6877 47.1661 68.6642L47.1193 68.6595L47.6759 62.2027V62.1886C48.4291 62.1886 49.0699 61.6584 49.1307 60.9358L49.1541 60.6636L49.1588 60.6308C49.2196 59.9081 48.6817 59.2746 47.9379 59.1433L47.9472 59.0494L48.7378 49.8804L48.7846 49.8851C49.0512 49.9085 49.2898 49.7208 49.3132 49.4675L49.3178 49.4252C49.3412 49.1718 49.1354 48.9466 48.8688 48.9231L48.822 48.9184L49.3786 42.4617V42.4476C50.1318 42.4476 50.7726 41.9173 50.8334 41.1947L50.8475 41.0305L50.8615 40.885C50.9223 40.1624 50.3844 39.5289 49.6406 39.3975V39.3834L50.4312 30.2144L50.4779 30.2191C50.7446 30.2426 50.9831 30.0549 51.0065 29.8015L51.0112 29.7592C51.0346 29.5058 50.8334 29.2806 50.5621 29.2572L50.5154 29.2525L51.072 22.7957L50.941 22.7863C51.755 22.8567 52.466 22.2936 52.5315 21.5334L52.5408 21.402L52.5549 21.2284C52.6204 20.4635 52.0169 19.7878 51.203 19.7174L49.5798 19.5767L50.2347 11.9937L50.2674 11.9984C50.5715 12.0265 50.8428 11.8107 50.8662 11.5244L50.8709 11.4775C50.8943 11.1913 50.665 10.9379 50.361 10.9097L50.3282 10.905L50.8334 5.06766L51.0907 5.09112C51.8485 5.15682 52.5174 4.63127 52.5783 3.91802L52.6063 3.59893L52.611 3.52854C52.6718 2.81529 52.1058 2.18182 51.348 2.11612L41.3469 1.27148L41.099 4.15733C41.099 4.15733 45.7767 4.87996 45.5756 6.81794L36.7393 109.343L37.7543 109.432L41.4545 109.751L44.3313 110L46.0574 89.9725L46.1042 89.9772C46.3895 90.0007 46.6421 89.8036 46.6655 89.5361L46.6702 89.4939C46.6936 89.2264 46.4784 88.9871 46.1931 88.9637L46.1463 88.959L46.7357 82.1174L46.6515 82.108C47.5122 82.1831 48.2653 81.5872 48.3355 80.7801L48.3636 80.4797V80.4563C48.4337 79.6445 47.7929 78.9265 46.9322 78.8515Z" fill="#D89C4C"/>
<path d="M25.6582 67.7682C25.3915 67.7447 25.1857 67.5195 25.2091 67.2661L25.2138 67.2239C25.2372 66.9705 25.471 66.7828 25.7424 66.8062H25.7657L25.9014 65.2108C25.9809 64.3099 25.2559 63.5028 24.2969 63.4183C23.338 63.3338 22.4866 64.0049 22.4118 64.9058L22.2761 66.5012H22.2855C22.5521 66.5247 22.7579 66.7499 22.7345 67.0033L22.7299 67.0456C22.7065 67.299 22.4726 67.4867 22.2013 67.4632H22.1919L21.4014 76.6322L24.891 76.9372L25.6815 67.7682H25.6582Z" fill="#CE974E"/>
<path d="M31.8794 68.3073C31.6128 68.2838 31.407 68.0586 31.4304 67.8052L31.435 67.7629C31.4584 67.5095 31.6923 67.3218 31.9636 67.3453H31.9777L32.1133 65.7499C32.1928 64.8489 31.4678 64.0418 30.5088 63.9574C29.5499 63.8729 28.6985 64.5439 28.6237 65.4449L28.488 67.0403H28.5021C28.7687 67.0638 28.9745 67.289 28.9511 67.5424L28.9465 67.5846C28.9231 67.838 28.6892 68.0257 28.4179 68.0022H28.4038L27.6133 77.1713L31.1029 77.4716L31.8935 68.3026L31.8794 68.3073Z" fill="#CE974E"/>
<path d="M43.8729 68.8843L43.8776 68.842C43.901 68.5886 44.1349 68.4056 44.4015 68.4244L44.5372 66.829C44.6167 65.928 43.8916 65.1209 42.9327 65.0365C41.9737 64.952 41.1224 65.623 41.0475 66.524L40.9119 68.1194L40.9399 68.1241C41.2066 68.1476 41.4124 68.3728 41.389 68.6262L41.3843 68.6684C41.3609 68.9218 41.127 69.1095 40.8557 69.086L40.8277 69.0814L40.0371 78.2504L43.5267 78.5507L44.3173 69.377C44.0507 69.3629 43.8495 69.1377 43.8729 68.8843Z" fill="#CE974E"/>
<path d="M36.7211 64.5023C35.7622 64.4178 34.9108 65.0888 34.8359 65.9898L34.7471 67.0268C34.8266 66.1259 35.6733 65.4549 36.6322 65.5393C37.5912 65.6238 38.3162 66.4262 38.2367 67.3318L38.3256 66.2948C38.4051 65.3939 37.68 64.5868 36.7211 64.5023Z" fill="#A57235"/>
<path d="M35.0744 69.1713L35.0791 69.1291C35.1025 68.8757 34.8967 68.6504 34.63 68.627H34.6067L34.5225 69.5842H34.5458C34.8172 69.6124 35.0557 69.4247 35.0744 69.1713Z" fill="#CE974E"/>
<path d="M37.5631 69.3444L37.5585 69.3867C37.5351 69.6401 37.7409 69.8653 38.0075 69.8888H38.0122L38.0964 68.9315H38.0917C37.8251 68.9034 37.5865 69.0911 37.5631 69.3444Z" fill="#CE974E"/>
<path d="M25.1247 68.2655L25.12 68.3078C25.0966 68.5612 25.3024 68.7864 25.569 68.8099H25.5924L25.6766 67.8526H25.6532C25.3819 67.8291 25.1434 68.0121 25.1247 68.2655Z" fill="#CE974E"/>
<path d="M22.6309 68.0912L22.6356 68.049C22.659 67.7956 22.4532 67.5703 22.1865 67.5469H22.1772L22.0977 68.5088H22.107C22.3736 68.5323 22.6122 68.3446 22.6309 68.0912Z" fill="#CE974E"/>
<path d="M24.2963 63.4222C23.3373 63.3378 22.486 64.0088 22.4111 64.9097L22.3223 65.9468C22.4018 65.0458 23.2485 64.3748 24.2074 64.4592C25.1664 64.5437 25.8867 65.3461 25.8119 66.2518L25.9008 65.2147C25.9756 64.3138 25.2552 63.5067 24.2963 63.4222Z" fill="#A57235"/>
<path d="M28.8532 68.6312L28.8579 68.589C28.8812 68.3356 28.6754 68.1104 28.4088 68.0869H28.3947L28.3105 69.0442H28.3246C28.5959 69.0723 28.8345 68.8846 28.8532 68.6312Z" fill="#CE974E"/>
<path d="M30.5092 63.9623C29.5502 63.8778 28.6989 64.5488 28.624 65.4498L28.5352 66.4868C28.6147 65.5858 29.4614 64.9148 30.4203 64.9993C31.3793 65.0838 32.1043 65.8862 32.0248 66.7918L32.1137 65.7548C32.1885 64.8538 31.4681 64.0467 30.5092 63.9623Z" fill="#A57235"/>
<path d="M31.3463 68.8044L31.3417 68.8466C31.3183 69.1 31.5241 69.3253 31.7907 69.3487H31.8048L31.889 68.3915H31.8749C31.6036 68.3633 31.365 68.551 31.3463 68.8044Z" fill="#CE974E"/>
<path d="M42.9379 65.0414C41.9789 64.9569 41.1276 65.6279 41.0527 66.5289L40.9639 67.5659C41.0434 66.6649 41.8901 65.9939 42.849 66.0784C43.808 66.1629 44.533 66.9653 44.4535 67.8709L44.5424 66.8339C44.6172 65.9282 43.8968 65.1258 42.9379 65.0414Z" fill="#A57235"/>
<path d="M41.2959 69.7102L41.3006 69.6679C41.324 69.4145 41.1182 69.1893 40.8515 69.1658L40.8235 69.1611L40.7393 70.1184L40.7673 70.1231C41.0386 70.1513 41.2772 69.9635 41.2959 69.7102Z" fill="#CE974E"/>
<path d="M43.7839 69.8837L43.7792 69.9259C43.7558 70.1793 43.957 70.4046 44.2283 70.428L44.3125 69.4708C44.0458 69.4473 43.8073 69.6303 43.7839 69.8837Z" fill="#CE974E"/>
<path d="M35.1682 68.1342L35.1729 68.0919C35.1963 67.8385 34.9904 67.6133 34.7238 67.5898H34.7004L34.6162 68.5471H34.6396C34.9062 68.5706 35.1448 68.3829 35.1682 68.1342Z" fill="#CE974E"/>
<path d="M37.6569 68.3073L37.6522 68.3496C37.6288 68.603 37.8346 68.8282 38.1013 68.8517H38.1059L38.1901 67.8944H38.1855C37.9142 67.8662 37.6756 68.0539 37.6569 68.3073Z" fill="#CE974E"/>
<path d="M22.7245 67.0541L22.7292 67.0119C22.7525 66.7585 22.5514 66.5332 22.2801 66.5098H22.2707L22.1865 67.467H22.1959C22.4625 67.4905 22.7011 67.3028 22.7245 67.0541Z" fill="#CE974E"/>
<path d="M25.2135 67.2282L25.2088 67.2705C25.1855 67.5239 25.3913 67.7491 25.6579 67.7726H25.6813L25.7655 66.8153H25.7421C25.4708 66.7871 25.2322 66.9748 25.2135 67.2282Z" fill="#CE974E"/>
<path d="M28.9459 67.5941L28.9506 67.5519C28.974 67.2985 28.7729 67.0733 28.5016 67.0498H28.4875L28.4033 68.0071H28.4174C28.684 68.0305 28.9226 67.8428 28.9459 67.5941Z" fill="#CE974E"/>
<path d="M31.4352 67.7673L31.4305 67.8095C31.4071 68.0629 31.613 68.2882 31.8796 68.3116H31.8936L31.9778 67.3544H31.9638C31.6925 67.3262 31.4539 67.5139 31.4352 67.7673Z" fill="#CE974E"/>
<path d="M43.8776 68.8474L43.8729 68.8896C43.8496 69.143 44.0507 69.3682 44.322 69.3917L44.4062 68.4344C44.1349 68.4063 43.8963 68.594 43.8776 68.8474Z" fill="#CE974E"/>
<path d="M41.3848 68.673L41.3895 68.6308C41.4128 68.3774 41.207 68.1522 40.9404 68.1287L40.9123 68.124L40.8281 69.0813L40.8562 69.086C41.1275 69.1094 41.3661 68.9217 41.3848 68.673Z" fill="#CE974E"/>
<path d="M19.5205 66.2705C19.2538 66.2471 19.0153 66.4348 18.9919 66.6882L18.9872 66.7304C18.9638 66.9838 19.165 67.209 19.4363 67.2325L19.4737 67.2372L19.5579 66.2799L19.5205 66.2705Z" fill="#EFB867"/>
<path d="M47.162 68.6685L47.1152 68.6638L47.6718 62.207L46.2451 78.7901L47.0357 69.6211L47.0824 69.6258C47.3491 69.6492 47.5876 69.4615 47.611 69.2081L47.6157 69.1659C47.6344 68.9172 47.4333 68.692 47.162 68.6685Z" fill="#EFB867"/>
<path d="M44.5697 46.1497C45.5287 46.2341 46.249 47.0365 46.1742 47.9422L46.249 47.0975C46.3286 46.1966 45.6035 45.3895 44.6446 45.305C43.6856 45.2206 42.8343 45.8916 42.7594 46.7925L42.6846 47.6372C42.7594 46.7362 43.6061 46.0652 44.5697 46.1497Z" fill="#A57235"/>
<path d="M25.9291 44.5305C26.888 44.615 27.6084 45.4174 27.5336 46.323L27.6084 45.4784C27.6879 44.5775 26.9629 43.7704 26.0039 43.6859C25.045 43.6014 24.1936 44.2724 24.1188 45.1734L24.0439 46.018C24.1188 45.1171 24.9655 44.4508 25.9291 44.5305Z" fill="#A57235"/>
<path d="M38.3529 45.6096C39.3119 45.6941 40.0369 46.4965 39.9574 47.4021L40.0323 46.5575C40.1118 45.6566 39.3867 44.8495 38.4278 44.765C37.4688 44.6805 36.6175 45.3515 36.5426 46.2525L36.4678 47.0971C36.5426 46.1962 37.394 45.5252 38.3529 45.6096Z" fill="#A57235"/>
<path d="M32.141 45.0706C33.1 45.155 33.8203 45.9574 33.7455 46.8631L33.8203 46.0184C33.8999 45.1175 33.1748 44.3104 32.2159 44.2259C31.2569 44.1415 30.4055 44.8125 30.3307 45.7134L30.2559 46.5581C30.3307 45.6571 31.1821 44.9861 32.141 45.0706Z" fill="#A57235"/>
<path d="M40.0414 26.0097C41.0003 26.0942 41.7207 26.8966 41.6459 27.8022L41.7254 26.9013C41.8049 26.0003 41.0799 25.1932 40.1209 25.1087C39.162 25.0243 38.3106 25.6953 38.2358 26.5962L38.1562 27.4972C38.2311 26.5962 39.0825 25.9299 40.0414 26.0097Z" fill="#A57235"/>
<path d="M40.7158 38.6279L43.4383 38.8672L40.7158 38.6279Z" fill="#CE974E"/>
<path d="M46.2543 26.5497C47.2132 26.6342 47.9383 27.4366 47.8588 28.3422L47.9383 27.4413C48.0178 26.5403 47.2928 25.7332 46.3338 25.6488C45.3749 25.5643 44.5235 26.2353 44.4487 27.1363L44.3691 28.0372C44.4487 27.1363 45.2953 26.4653 46.2543 26.5497Z" fill="#A57235"/>
<path d="M24.7969 37.2483L22.0791 37.0137L24.7969 37.2483Z" fill="#CE974E"/>
<path d="M46.9277 39.168L49.6455 39.4026L46.9277 39.168Z" fill="#CE974E"/>
<path d="M27.6127 24.9355C28.5716 25.0199 29.292 25.8223 29.2172 26.728L29.2967 25.827C29.3762 24.9261 28.6512 24.119 27.6922 24.0345C26.7333 23.9501 25.8819 24.6211 25.8071 25.522L25.7275 26.423C25.8071 25.522 26.6537 24.851 27.6127 24.9355Z" fill="#A57235"/>
<path d="M34.499 38.0879L37.2215 38.3272L34.499 38.0879Z" fill="#CE974E"/>
<path d="M28.2861 37.5537L31.0086 37.7883L28.2861 37.5537Z" fill="#CE974E"/>
<path d="M33.8295 25.4755C34.7884 25.56 35.5088 26.3624 35.434 27.268L35.5135 26.3671C35.593 25.4661 34.868 24.659 33.909 24.5746C32.9501 24.4901 32.0987 25.1611 32.0239 26.0621L31.9443 26.963C32.0192 26.0621 32.8705 25.391 33.8295 25.4755Z" fill="#A57235"/>
<path d="M39.4385 18.7178L42.5305 18.9852L39.4385 18.7178Z" fill="#CE974E"/>
<path d="M38.452 7.01494C39.5419 7.10879 40.3605 8.02381 40.2717 9.04676L40.3418 8.23497C40.4307 7.21202 39.6121 6.297 38.5222 6.20315C37.4322 6.1093 36.4686 6.86947 36.3797 7.89242L36.3096 8.70421C36.3984 7.68126 37.3621 6.92109 38.452 7.01494Z" fill="#A57235"/>
<path d="M44.369 7.85041C44.4813 7.7941 44.5982 7.74248 44.7198 7.70963C44.8415 7.67209 44.9678 7.64863 45.0987 7.63455C45.2297 7.62048 45.3654 7.62048 45.501 7.62986C46.591 7.72371 47.4096 8.63873 47.3207 9.66168L47.3909 8.84989C47.4797 7.82694 46.6611 6.91192 45.5712 6.81807C45.4355 6.80399 45.2999 6.80869 45.1689 6.82276C45.0379 6.83684 44.9116 6.8603 44.79 6.89784C44.6684 6.93538 44.5514 6.98231 44.4392 7.03861C43.8825 7.32955 43.4849 7.86448 43.4334 8.50265L43.3633 9.31444C43.4147 8.67627 43.8123 8.14134 44.369 7.85041Z" fill="#A57235"/>
<path d="M31.4022 6.40513C31.9448 6.45205 32.422 6.70544 32.7541 7.07145C32.8383 7.1653 32.9084 7.26384 32.9739 7.36707C33.161 7.68147 33.2546 8.05217 33.2219 8.43695L33.292 7.62516C33.3248 7.24038 33.2312 6.87437 33.0441 6.55528C32.9833 6.45205 32.9084 6.34882 32.8242 6.25966C32.4921 5.89365 32.0197 5.64026 31.4724 5.59334C30.7894 5.53233 30.1626 5.80919 29.7603 6.27374C29.5217 6.55059 29.3627 6.89783 29.3299 7.28261L29.2598 8.0944C29.2925 7.70962 29.4469 7.36238 29.6901 7.08553C30.0924 6.62098 30.7239 6.34882 31.4022 6.40513Z" fill="#A57235"/>
<path d="M28.4323 17.7608L25.3496 17.498L28.4323 17.7608Z" fill="#CE974E"/>
<path d="M46.4883 19.3281L49.5803 19.5956L46.4883 19.3281Z" fill="#CE974E"/>
<path d="M32.3896 18.1074L35.4817 18.3749L32.3896 18.1074Z" fill="#CE974E"/>
<path d="M44.7903 6.89258C44.6687 6.93012 44.5517 6.97704 44.4395 7.03335C44.5517 6.98173 44.6687 6.93012 44.7903 6.89258Z" fill="#EFB867"/>
<path d="M45.1689 6.81738C45.038 6.83146 44.9117 6.85492 44.79 6.89246C44.9117 6.85961 45.038 6.83146 45.1689 6.81738Z" fill="#EFB867"/>
<path d="M29.7607 6.27374C30.1584 5.80919 30.7899 5.53703 31.4728 5.59334C30.7945 5.53233 30.163 5.80919 29.7607 6.27374Z" fill="#EFB867"/>
<path d="M47.854 59.134L20.4702 56.7596C19.6844 56.6892 18.992 57.2758 18.9219 58.0641L18.9032 58.28C18.833 59.0683 19.4177 59.7628 20.2036 59.8332L47.5874 62.2076C48.3733 62.2779 49.0656 61.6914 49.1357 60.903L49.1544 60.6872C49.2199 59.8942 48.6399 59.1997 47.854 59.134Z" fill="#FFD895"/>
<path d="M49.5523 39.3977L22.1685 37.0233C21.3826 36.9529 20.6903 37.5395 20.6201 38.3278L20.6014 38.5437C20.5312 39.332 21.116 40.0265 21.9018 40.0968L49.2856 42.4712C50.0715 42.5416 50.7638 41.9551 50.834 41.1667L50.8527 40.9509C50.9229 40.1578 50.3428 39.4634 49.5523 39.3977Z" fill="#FFD895"/>
<path d="M51.2456 19.7405L23.8618 17.3661C23.076 17.2957 22.3837 17.8822 22.3135 18.6706L22.2948 18.8864C22.2246 19.6748 22.8093 20.3692 23.5952 20.4396L50.979 22.814C51.7649 22.8844 52.4572 22.2978 52.5273 21.5095L52.546 21.2936C52.6162 20.5053 52.0362 19.8108 51.2456 19.7405Z" fill="#FFD895"/>
<path d="M51.3859 2.13941L26.7386 0.00435603C26.0042 -0.061338 25.354 0.487676 25.2931 1.22439L25.2651 1.5247C25.1996 2.26142 25.7469 2.91366 26.4813 2.97467L51.1286 5.10972C51.863 5.17542 52.5132 4.6264 52.574 3.88969L52.6021 3.58937C52.6676 2.85735 52.1203 2.20511 51.3859 2.13941Z" fill="#FFD895"/>
<path d="M46.9839 78.8556L17.9582 76.3404C17.1256 76.27 16.3912 76.8894 16.321 77.7247L16.3023 77.9499C16.2321 78.7852 16.8496 79.5219 17.6823 79.5923L46.7079 82.1074C47.5406 82.1778 48.275 81.5584 48.3452 80.7232L48.3639 80.4979C48.4341 79.6674 47.8166 78.9306 46.9839 78.8556Z" fill="#FFD895"/>
<path d="M49.1544 60.6677L49.1591 60.6348C49.2246 59.87 48.6212 59.1943 47.8072 59.1239L20.517 56.7589C19.7031 56.6885 18.992 57.2516 18.9266 58.0118L18.9219 58.0446L49.1544 60.6677Z" fill="#CE974E"/>
<path d="M50.8476 41.044L50.8616 40.8985C50.9271 40.1336 50.3237 39.4579 49.5097 39.3875L22.2148 37.0225C21.4009 36.9522 20.6899 37.5152 20.6244 38.2754L20.6104 38.4209L50.8476 41.044Z" fill="#CE974E"/>
<path d="M52.5363 21.4207L52.5503 21.2471C52.6158 20.4823 52.0124 19.8065 51.1984 19.7362L23.9082 17.3712C23.0943 17.3008 22.3832 17.8639 22.3177 18.6241L22.3037 18.7977L52.5363 21.4207Z" fill="#CE974E"/>
<path d="M52.6017 3.61799L52.6064 3.5476C52.6672 2.83435 52.1012 2.20087 51.3434 2.13518L26.785 0.00481575C26.0225 -0.0561859 25.3536 0.469367 25.2928 1.18262L25.2881 1.253L52.6017 3.61799Z" fill="#CE974E"/>
<path d="M48.3642 80.4746V80.4511C48.4343 79.644 47.7935 78.9261 46.9328 78.851L18.0053 76.3453C17.1446 76.2702 16.3915 76.8661 16.3213 77.6732V77.6967L48.3642 80.4746Z" fill="#CE974E"/>
<path d="M67 106.837H0V110H67V106.837Z" fill="#8AC53E"/>
</g>
<defs>
<clipPath id="clip0_137_1721">
<rect width="67" height="110" fill="white"/>
</clipPath>
</defs>
</svg>
