<svg width="20" height="20" viewBox="0 0 20 20" fill="none" xmlns="http://www.w3.org/2000/svg">
<path fill-rule="evenodd" clip-rule="evenodd" d="M18.339 5.65899C19.009 6.17799 19.42 6.94899 19.49 7.78799L19.5 7.98899V16.098C19.5 18.188 17.849 19.888 15.78 19.998H13.79C12.839 19.979 12.07 19.239 12 18.309L11.99 18.168V15.309C11.99 14.998 11.759 14.739 11.45 14.688L11.36 14.678H8.689C8.37 14.688 8.11 14.918 8.07 15.218L8.06 15.309V18.159C8.06 18.218 8.049 18.288 8.04 18.338L8.03 18.359L8.019 18.428C7.9 19.279 7.2 19.928 6.33 19.989L6.2 19.998H4.41C2.32 19.998 0.61 18.359 0.5 16.298V7.98899C0.509 7.13799 0.88 6.34799 1.5 5.79799L7.73 0.787988C9 -0.221012 10.78 -0.261012 12.089 0.667988L12.25 0.787988L18.339 5.65899ZM18.099 16.258L18.11 16.098V7.99799C18.099 7.56899 17.92 7.16799 17.61 6.86899L17.48 6.75799L11.38 1.87799C10.62 1.26799 9.54 1.23899 8.74 1.76799L8.589 1.87799L2.509 6.77899C2.16 7.03799 1.95 7.42799 1.9 7.83799L1.889 7.99799V16.098C1.889 17.428 2.929 18.518 4.25 18.598H6.2C6.42 18.598 6.61 18.449 6.639 18.239L6.66 18.059L6.67 18.008V15.309C6.67 14.239 7.49 13.369 8.54 13.288H11.36C12.429 13.288 13.299 14.109 13.38 15.159V18.168C13.38 18.378 13.53 18.559 13.73 18.598H15.589C16.929 18.598 18.019 17.569 18.099 16.258Z" fill="#0D2D1E"/>
</svg>
