<svg width="14" height="14" viewBox="0 0 14 14" fill="none" xmlns="http://www.w3.org/2000/svg">
<path d="M4.66578 1.40039C2.86491 1.40039 1.40002 2.86664 1.40002 4.66797V9.33464C1.40002 11.1355 2.86627 12.6004 4.6676 12.6004H9.33427C11.1351 12.6004 12.6 11.1341 12.6 9.33281V4.66615C12.6 2.86528 11.1338 1.40039 9.33245 1.40039H4.66578ZM10.2667 3.26706C10.5243 3.26706 10.7334 3.47612 10.7334 3.73372C10.7334 3.99132 10.5243 4.20039 10.2667 4.20039C10.0091 4.20039 9.80002 3.99132 9.80002 3.73372C9.80002 3.47612 10.0091 3.26706 10.2667 3.26706ZM7.00002 4.20039C8.54422 4.20039 9.80002 5.45619 9.80002 7.00039C9.80002 8.54459 8.54422 9.80039 7.00002 9.80039C5.45582 9.80039 4.20002 8.54459 4.20002 7.00039C4.20002 5.45619 5.45582 4.20039 7.00002 4.20039ZM7.00002 5.13372C6.50495 5.13372 6.03016 5.33039 5.68009 5.68046C5.33002 6.03053 5.13336 6.50532 5.13336 7.00039C5.13336 7.49546 5.33002 7.97025 5.68009 8.32032C6.03016 8.67039 6.50495 8.86706 7.00002 8.86706C7.4951 8.86706 7.96989 8.67039 8.31996 8.32032C8.67002 7.97025 8.86669 7.49546 8.86669 7.00039C8.86669 6.50532 8.67002 6.03053 8.31996 5.68046C7.96989 5.33039 7.4951 5.13372 7.00002 5.13372Z" fill="black"/>
</svg>
