<svg width="14" height="14" viewBox="0 0 14 14" fill="none" xmlns="http://www.w3.org/2000/svg">
<path d="M4.20003 11.6671H1.8667V4.66706H4.20003V11.6671ZM3.03383 3.73372C2.38843 3.73372 1.8667 3.21059 1.8667 2.56659C1.8667 1.92259 2.38937 1.40039 3.03383 1.40039C3.6769 1.40039 4.20003 1.92352 4.20003 2.56659C4.20003 3.21059 3.6769 3.73372 3.03383 3.73372ZM12.6 11.6671H10.3568V8.26039C10.3568 7.44792 10.3414 6.40306 9.19057 6.40306C8.0225 6.40306 7.84283 7.28786 7.84283 8.20159V11.6671H5.60003V4.66192H7.75323V5.61906H7.78357C8.08317 5.06839 8.81537 4.48786 9.90737 4.48786C12.18 4.48786 12.6 5.93872 12.6 7.82499V11.6671Z" fill="black"/>
</svg>
