<svg width="14" height="14" viewBox="0 0 14 14" fill="none" xmlns="http://www.w3.org/2000/svg">
<path d="M7.00002 1.86621C5.04655 1.86621 2.51108 2.35566 2.51108 2.35566L2.5047 2.36296C1.61499 2.50525 0.93335 3.26977 0.93335 4.19954V6.99954V7.00046V9.79954V9.80046C0.934218 10.2445 1.09336 10.6737 1.38219 11.011C1.67102 11.3483 2.07063 11.5715 2.50926 11.6407L2.51108 11.6434C2.51108 11.6434 5.04655 12.1338 7.00002 12.1338C8.95348 12.1338 11.4889 11.6434 11.4889 11.6434L11.4899 11.6425C11.929 11.5735 12.329 11.35 12.6181 11.0124C12.9071 10.6747 13.0662 10.245 13.0667 9.80046V9.79954V7.00046V6.99954V4.19954C13.066 3.75534 12.907 3.32592 12.6181 2.98845C12.3293 2.65099 11.9296 2.42759 11.4908 2.3584L11.4889 2.35566C11.4889 2.35566 8.95348 1.86621 7.00002 1.86621ZM5.60002 4.85215L9.33335 6.99954L5.60002 9.14694V4.85215Z" fill="black"/>
</svg>
